<svg width="163" height="41" viewBox="0 0 163 41" fill="none" xmlns="http://www.w3.org/2000/svg">
<path d="M25.7038 21.0027C25.6608 16.2253 29.6166 13.9011 29.7975 13.7929C27.5572 10.5274 24.0847 10.0813 22.8645 10.0457C19.9481 9.73885 17.1191 11.7903 15.6335 11.7903C14.1182 11.7903 11.8304 10.0753 9.36473 10.1257C6.1918 10.1746 3.22348 12.0112 1.5955 14.8631C-1.76424 20.6781 0.74148 29.2235 3.96037 33.9238C5.57056 36.2273 7.45207 38.7961 9.9148 38.7056C12.3241 38.6078 13.2241 37.1715 16.1317 37.1715C19.0125 37.1715 19.8576 38.7056 22.3693 38.6478C24.9551 38.6078 26.583 36.3355 28.1369 34.0127C29.9977 31.3757 30.7449 28.7758 30.7746 28.6424C30.7153 28.6217 25.7542 26.7273 25.7038 21.0027ZM20.9593 6.95364C22.2551 5.3335 23.1418 3.12934 22.8956 0.892578C21.02 0.975586 18.6745 2.18958 17.3237 3.77414C16.1287 5.17045 15.0612 7.4591 15.3369 9.61137C17.4438 9.76849 19.6071 8.54857 20.9593 6.95364Z" fill="white"/>
<path d="M48.0669 11.6747C47.1877 11.6747 46.427 11.6317 45.7939 11.5591V2.02208C46.6794 1.88533 47.5742 1.81793 48.4702 1.82049C52.0953 1.82049 53.7648 3.60367 53.7648 6.51043C53.7648 9.86336 51.7929 11.6747 48.0669 11.6747ZM48.5977 3.04337C48.1084 3.04337 47.6918 3.07302 47.3463 3.14417V10.394C47.5331 10.4237 47.8919 10.437 48.396 10.437C50.7713 10.437 52.1235 9.08516 52.1235 6.55342C52.1235 4.2959 50.9003 3.04337 48.5977 3.04337ZM58.9675 11.7473C56.9244 11.7473 55.6004 10.2221 55.6004 8.15132C55.6004 5.99311 56.9526 4.4545 59.0832 4.4545C61.0966 4.4545 62.4503 5.90714 62.4503 8.03718C62.4503 10.2221 61.0551 11.7473 58.9675 11.7473ZM59.0268 5.58993C57.9044 5.58993 57.1853 6.63939 57.1853 8.10685C57.1853 9.54615 57.9193 10.5956 59.012 10.5956C60.1047 10.5956 60.8387 9.47351 60.8387 8.0772C60.8387 6.65421 60.1196 5.58993 59.0268 5.58993ZM74.1012 4.59829L71.9143 11.5887H70.4894L69.5835 8.55302C69.3582 7.81046 69.1707 7.05699 69.0216 6.2955H68.9919C68.8777 7.05739 68.6613 7.82077 68.4315 8.55302L67.4677 11.5887H66.028L63.9701 4.59829H65.5669L66.3587 7.92156C66.5455 8.7131 66.7027 9.46017 66.8331 10.1657H66.8628C66.9769 9.57727 67.1638 8.84206 67.4381 7.93639L68.4315 4.59977H69.6977L70.6481 7.86524C70.8779 8.65678 71.0647 9.43349 71.21 10.1672H71.2515C71.3523 9.44832 71.511 8.68494 71.726 7.86524L72.5755 4.59977L74.1012 4.59829ZM82.1521 11.5887H80.5983V7.57471C80.5983 6.33849 80.1238 5.71889 79.1883 5.71889C78.2675 5.71889 77.6344 6.51043 77.6344 7.43093V11.5887H76.0806V6.5964C76.0806 5.97829 76.0658 5.31571 76.0228 4.5968H77.3898L77.4624 5.67591H77.5054C77.9236 4.92884 78.7716 4.4545 79.722 4.4545C81.1899 4.4545 82.1536 5.57659 82.1536 7.40277L82.1521 11.5887ZM86.4371 11.5887H84.8818V1.39062H86.4371V11.5887ZM92.1024 11.7473C90.0607 11.7473 88.7352 10.2221 88.7352 8.15132C88.7352 5.99311 90.0874 4.4545 92.2166 4.4545C94.2315 4.4545 95.5837 5.90714 95.5837 8.03718C95.5852 10.2221 94.1885 11.7473 92.1024 11.7473ZM92.1602 5.58993C91.0378 5.58993 90.3187 6.63939 90.3187 8.10685C90.3187 9.54615 91.0541 10.5956 92.1439 10.5956C93.2381 10.5956 93.9706 9.47351 93.9706 8.0772C93.972 6.65421 93.2544 5.58993 92.1602 5.58993ZM101.71 11.5887L101.597 10.7839H101.556C101.081 11.4316 100.389 11.7473 99.5113 11.7473C98.2585 11.7473 97.3689 10.8698 97.3689 9.68993C97.3689 7.96455 98.8649 7.07222 101.455 7.07222V6.94326C101.455 6.02276 100.967 5.56177 100.004 5.56177C99.3141 5.56177 98.7092 5.7352 98.1769 6.08057L97.8611 5.05928C98.5075 4.65609 99.3141 4.4545 100.262 4.4545C102.088 4.4545 103.01 5.41799 103.01 7.34644V9.92116C103.01 10.6267 103.042 11.1737 103.111 11.5902L101.71 11.5887ZM101.497 8.10685C99.7708 8.10685 98.9049 8.52485 98.9049 9.5165C98.9049 10.2502 99.3512 10.6089 99.971 10.6089C100.761 10.6089 101.497 10.0057 101.497 9.18595V8.10685ZM110.556 11.5887L110.483 10.4666H110.44C109.994 11.3145 109.244 11.7473 108.195 11.7473C106.51 11.7473 105.261 10.2651 105.261 8.17948C105.261 5.99311 106.556 4.45302 108.323 4.45302C109.258 4.45302 109.921 4.76875 110.295 5.40317H110.326V1.39062H111.881V9.70475C111.881 10.3807 111.898 11.0136 111.939 11.5887H110.556ZM110.326 7.4754C110.326 6.49709 109.678 5.66257 108.689 5.66257C107.537 5.66257 106.833 6.68386 106.833 8.12167C106.833 9.53132 107.564 10.4963 108.658 10.4963C109.635 10.4963 110.326 9.64694 110.326 8.64047V7.4754ZM121.743 11.7473C119.701 11.7473 118.377 10.2221 118.377 8.15132C118.377 5.99311 119.729 4.4545 121.858 4.4545C123.873 4.4545 125.225 5.90714 125.225 8.03718C125.227 10.2221 123.832 11.7473 121.743 11.7473ZM121.8 5.58993C120.68 5.58993 119.96 6.63939 119.96 8.10685C119.96 9.54615 120.694 10.5956 121.786 10.5956C122.88 10.5956 123.612 9.47351 123.612 8.0772C123.615 6.65421 122.896 5.58993 121.8 5.58993ZM133.582 11.5887H132.026V7.57471C132.026 6.33849 131.552 5.71889 130.616 5.71889C129.696 5.71889 129.064 6.51043 129.064 7.43093V11.5887H127.509V6.5964C127.509 5.97829 127.494 5.31571 127.451 4.5968H128.818L128.891 5.67591H128.934C129.35 4.92884 130.2 4.45302 131.149 4.45302C132.617 4.45302 133.582 5.57511 133.582 7.40128V11.5887ZM144.036 5.76336H142.327V9.15779C142.327 10.022 142.626 10.4533 143.231 10.4533C143.505 10.4533 143.735 10.4237 143.92 10.3807L143.963 11.5606C143.662 11.6762 143.259 11.734 142.758 11.734C141.533 11.734 140.801 11.0581 140.801 9.28823V5.76336H139.781V4.59829H140.801V3.31759L142.327 2.8566V4.5968H144.036V5.76336ZM152.262 11.5887H150.71V7.60436C150.71 6.35331 150.237 5.72037 149.3 5.72037C148.495 5.72037 147.744 6.26734 147.744 7.3746V11.5887H146.192V1.39062H147.744V5.58993H147.775C148.265 4.82804 148.973 4.45302 149.878 4.45302C151.358 4.45302 152.262 5.60327 152.262 7.43093V11.5887ZM160.69 8.46704H156.027C156.056 9.79072 156.932 10.5378 158.23 10.5378C158.919 10.5378 159.554 10.4222 160.114 10.2072L160.356 11.2863C159.695 11.5739 158.916 11.7177 158.01 11.7177C155.823 11.7177 154.529 10.3362 154.529 8.1943C154.529 6.05092 155.855 4.43968 157.835 4.43968C159.622 4.43968 160.743 5.76336 160.743 7.76296C160.753 7.99894 160.735 8.23528 160.69 8.46704ZM159.265 7.35978C159.265 6.28068 158.721 5.51878 157.727 5.51878C156.835 5.51878 156.129 6.2955 156.028 7.35978H159.265Z" fill="white"/>
<path d="M60.8229 35.11H57.4558L55.6113 29.3158H49.2002L47.4432 35.11H44.165L50.5183 15.3838H54.4415L60.8229 35.11ZM55.0553 26.8849L53.3873 21.7339C53.2109 21.2077 52.8787 19.9685 52.3924 18.0178H52.3331C52.1374 18.8568 51.8245 20.096 51.3961 21.7339L49.7562 26.8849H55.0553ZM77.1294 27.8231C77.1294 30.2422 76.4726 32.1544 75.1574 33.5581C73.9802 34.8077 72.5168 35.4317 70.7717 35.4317C68.8872 35.4317 67.532 34.7602 66.7091 33.4143V40.8776H63.5481V25.5612C63.5481 24.0418 63.508 22.4839 63.4309 20.886H66.211L66.3874 23.1406H66.4467C67.5009 21.4419 69.1007 20.5926 71.2476 20.5926C72.926 20.5926 74.3271 21.2551 75.448 22.5818C76.5675 23.9114 77.1294 25.6575 77.1294 27.8231ZM73.909 27.9388C73.909 26.5543 73.5977 25.4129 72.972 24.5132C72.2885 23.5779 71.3707 23.1095 70.2201 23.1095C69.4402 23.1095 68.7315 23.3704 68.0984 23.8847C67.4638 24.4035 67.0487 25.0809 66.8544 25.9199C66.7677 26.2336 66.7185 26.5566 66.7077 26.8819V29.255C66.7077 30.2882 67.025 31.1612 67.6595 31.8757C68.2941 32.5872 69.1185 32.9444 70.1326 32.9444C71.3232 32.9444 72.2499 32.4834 72.9127 31.5689C73.5769 30.6513 73.909 29.4418 73.909 27.9388ZM93.4937 27.8231C93.4937 30.2422 92.8369 32.1544 91.5217 33.5581C90.343 34.8077 88.8811 35.4317 87.1345 35.4317C85.25 35.4317 83.8948 34.7602 83.072 33.4143V40.8776H79.9109V25.5612C79.9109 24.0418 79.8709 22.4839 79.7938 20.886H82.5738L82.7502 23.1406H82.8095C83.8622 21.4419 85.462 20.5926 87.6104 20.5926C89.2873 20.5926 90.6885 21.2551 91.8123 22.5818C92.9303 23.9114 93.4937 25.6575 93.4937 27.8231ZM90.2718 27.9388C90.2718 26.5543 89.959 25.4129 89.3333 24.5132C88.6498 23.5779 87.735 23.1095 86.5844 23.1095C85.8045 23.1095 85.0958 23.3704 84.4598 23.8847C83.8252 24.4035 83.4115 25.0809 83.2173 25.9199C83.1209 26.3112 83.069 26.6299 83.069 26.8819V29.255C83.069 30.2882 83.3878 31.1612 84.0194 31.8757C84.654 32.5857 85.4784 32.9444 86.4955 32.9444C87.6875 32.9444 88.6142 32.4834 89.2755 31.5689C89.9397 30.6513 90.2718 29.4418 90.2718 27.9388ZM111.79 29.5767C111.79 31.2561 111.203 32.6213 110.036 33.6752C108.752 34.8254 106.959 35.4021 104.661 35.4021C102.538 35.4021 100.836 34.9929 99.5519 34.1732L100.283 31.5392C101.669 32.3604 103.192 32.7695 104.85 32.7695C106.042 32.7695 106.968 32.4997 107.63 31.9646C108.292 31.4281 108.627 30.7106 108.627 29.8153C108.627 29.0134 108.35 28.3419 107.806 27.795C107.259 27.2495 106.354 26.7411 105.084 26.2741C101.629 24.986 99.9003 23.1021 99.9003 20.6237C99.9003 19.005 100.511 17.6799 101.73 16.6437C102.949 15.6091 104.565 15.0918 106.575 15.0918C108.371 15.0918 109.867 15.4046 111.055 16.0286L110.261 18.6048C109.143 18 107.882 17.6977 106.47 17.6977C105.355 17.6977 104.48 17.9719 103.855 18.5174C103.328 19.005 103.061 19.5994 103.061 20.305C103.061 21.0832 103.365 21.7295 103.97 22.2364C104.495 22.7033 105.453 23.2117 106.838 23.7572C108.537 24.442 109.785 25.2395 110.585 26.1556C111.39 27.0716 111.79 28.2145 111.79 29.5767ZM122.268 23.2577H118.784V30.1637C118.784 31.9202 119.398 32.7962 120.628 32.7962C121.193 32.7962 121.662 32.7488 122.032 32.6495L122.12 35.0493C121.497 35.282 120.677 35.3991 119.661 35.3991C118.413 35.3991 117.437 35.0181 116.733 34.2563C116.032 33.4944 115.679 32.2181 115.679 30.4216V23.2518H113.603V20.8801H115.679V18.2757L118.784 17.3389V20.8801H122.268V23.2577ZM137.958 27.8809C137.958 30.0673 137.332 31.8624 136.084 33.2661C134.777 34.7113 133.04 35.4317 130.873 35.4317C128.783 35.4317 127.121 34.7395 125.881 33.3565C124.642 31.9706 124.022 30.2244 124.022 28.1181C124.022 25.914 124.663 24.1085 125.939 22.7048C127.219 21.2996 128.942 20.597 131.108 20.597C133.195 20.597 134.872 21.2907 136.141 22.6752C137.354 24.0181 137.958 25.7524 137.958 27.8809ZM134.681 27.9536C134.681 26.6507 134.399 25.533 133.834 24.5977C133.172 23.4682 132.223 22.9034 130.994 22.9034C129.727 22.9034 128.756 23.4682 128.095 24.5977C127.529 25.533 127.247 26.6699 127.247 28.0129C127.247 29.3173 127.529 30.4379 128.095 31.3702C128.778 32.4997 129.732 33.0645 130.967 33.0645C132.175 33.0645 133.123 32.4879 133.808 31.3421C134.389 30.3845 134.681 29.2595 134.681 27.9536ZM148.237 23.6653C147.908 23.606 147.575 23.5767 147.241 23.5779C146.129 23.5779 145.269 23.9959 144.664 24.8378C144.139 25.579 143.875 26.5158 143.875 27.6467V35.11H140.714V25.3655C140.717 23.8724 140.686 22.3793 140.622 20.8875H143.375L143.491 23.609H143.579C143.914 22.6737 144.438 21.9192 145.159 21.3544C145.819 20.861 146.62 20.5937 147.444 20.5926C147.736 20.5926 148 20.6133 148.234 20.6504L148.237 23.6653ZM162.374 27.3251C162.382 27.8055 162.344 28.2855 162.259 28.7585H152.776C152.811 30.1637 153.271 31.2398 154.151 31.9809C154.951 32.642 155.984 32.9741 157.253 32.9741C158.657 32.9741 159.938 32.7517 161.09 32.3026L161.586 34.4949C160.239 35.0819 158.65 35.3739 156.816 35.3739C154.61 35.3739 152.878 34.7247 151.618 33.4291C150.36 32.1321 149.73 30.389 149.73 28.2056C149.73 26.0622 150.316 24.276 151.489 22.8516C152.716 21.3307 154.375 20.5703 156.463 20.5703C158.514 20.5703 160.066 21.3307 161.12 22.8516C161.955 24.0567 162.374 25.5508 162.374 27.3251ZM159.36 26.5054C159.382 25.5671 159.175 24.7593 158.746 24.0759C158.199 23.1954 157.357 22.7567 156.229 22.7567C155.195 22.7567 154.353 23.1851 153.713 24.0448C153.186 24.7281 152.873 25.5493 152.777 26.5024L159.36 26.5054Z" fill="white"/>
</svg>
