<svg width="185" height="39" viewBox="0 0 185 39" fill="none" xmlns="http://www.w3.org/2000/svg">
<path d="M99.2808 14.3292C95.7252 14.3292 92.9104 16.9958 92.9104 20.6995C92.9104 24.2551 95.7252 27.0699 99.2808 27.0699C102.836 27.0699 105.651 24.4032 105.651 20.6995C105.651 16.8477 102.836 14.3292 99.2808 14.3292ZM99.2808 24.4032C97.3548 24.4032 95.7252 22.7736 95.7252 20.5514C95.7252 18.3292 97.3548 16.6995 99.2808 16.6995C101.207 16.6995 102.836 18.181 102.836 20.5514C102.836 22.7736 101.207 24.4032 99.2808 24.4032ZM85.503 14.3292C81.9474 14.3292 79.1326 16.9958 79.1326 20.6995C79.1326 24.2551 81.9474 27.0699 85.503 27.0699C89.0585 27.0699 91.8734 24.4032 91.8734 20.6995C91.8734 16.8477 89.0585 14.3292 85.503 14.3292ZM85.503 24.4032C83.5771 24.4032 81.9474 22.7736 81.9474 20.5514C81.9474 18.3292 83.5771 16.6995 85.503 16.6995C87.4289 16.6995 89.0585 18.181 89.0585 20.5514C89.0585 22.7736 87.4289 24.4032 85.503 24.4032ZM69.0585 16.2551V18.9218H75.4289C75.2808 20.4032 74.6882 21.5884 73.9474 22.3292C73.0585 23.2181 71.5771 24.2551 69.0585 24.2551C65.0585 24.2551 62.0956 21.144 62.0956 17.144C62.0956 13.144 65.2067 10.0329 69.0585 10.0329C71.1326 10.0329 72.7622 10.9218 73.9474 11.9588L75.8734 10.0329C74.2437 8.55139 72.1697 7.36621 69.2067 7.36621C63.8734 7.36621 59.2808 11.8107 59.2808 17.144C59.2808 22.4773 63.8734 26.9218 69.2067 26.9218C72.1697 26.9218 74.2437 26.0329 76.0215 24.1069C77.7993 22.3292 78.3919 19.8107 78.3919 17.8847C78.3919 17.2921 78.3919 16.6995 78.2437 16.2551H69.0585ZM136.318 18.3292C135.725 16.8477 134.244 14.3292 130.984 14.3292C127.725 14.3292 125.059 16.8477 125.059 20.6995C125.059 24.2551 127.725 27.0699 131.281 27.0699C134.096 27.0699 135.873 25.2921 136.466 24.2551L134.392 22.7736C133.651 23.8107 132.762 24.5514 131.281 24.5514C129.799 24.5514 128.91 23.9588 128.17 22.6255L136.614 19.0699L136.318 18.3292ZM127.725 20.4032C127.725 18.0329 129.651 16.6995 130.984 16.6995C132.022 16.6995 133.059 17.2921 133.355 18.0329L127.725 20.4032ZM120.762 26.4773H123.577V7.9588H120.762V26.4773ZM116.318 15.6625C115.577 14.9218 114.392 14.181 112.91 14.181C109.799 14.181 106.836 16.9958 106.836 20.5514C106.836 24.1069 109.651 26.7736 112.91 26.7736C114.392 26.7736 115.577 26.0329 116.17 25.2921H116.318V26.181C116.318 28.5514 114.984 29.8847 112.91 29.8847C111.281 29.8847 110.096 28.6995 109.799 27.6625L107.429 28.6995C108.17 30.3292 109.947 32.4032 113.059 32.4032C116.318 32.4032 118.984 30.4773 118.984 25.8847V14.6255H116.318V15.6625ZM113.059 24.4032C111.133 24.4032 109.503 22.7736 109.503 20.5514C109.503 18.3292 111.133 16.6995 113.059 16.6995C114.984 16.6995 116.466 18.3292 116.466 20.5514C116.466 22.7736 114.984 24.4032 113.059 24.4032ZM149.207 7.9588H142.54V26.4773H145.355V19.5144H149.207C152.318 19.5144 155.281 17.2921 155.281 13.7366C155.281 10.181 152.318 7.9588 149.207 7.9588ZM149.355 16.8477H145.355V10.4773H149.355C151.429 10.4773 152.614 12.2551 152.614 13.5884C152.466 15.2181 151.281 16.8477 149.355 16.8477ZM166.392 14.181C164.318 14.181 162.244 15.0699 161.503 16.9958L164.022 18.0329C164.614 16.9958 165.503 16.6995 166.54 16.6995C168.021 16.6995 169.355 17.5884 169.503 19.0699V19.2181C169.059 18.9218 167.873 18.4773 166.688 18.4773C164.021 18.4773 161.355 19.9588 161.355 22.6255C161.355 25.144 163.577 26.7736 165.947 26.7736C167.873 26.7736 168.762 25.8847 169.503 24.9958H169.651V26.4773H172.318V19.3662C172.022 16.107 169.503 14.181 166.392 14.181ZM166.096 24.4032C165.207 24.4032 163.873 23.9588 163.873 22.7736C163.873 21.2921 165.503 20.8477 166.836 20.8477C168.021 20.8477 168.614 21.144 169.355 21.4403C169.059 23.2181 167.577 24.4032 166.096 24.4032ZM181.651 14.6255L178.54 22.6255H178.392L175.133 14.6255H172.17L177.059 25.8847L174.244 32.1069H177.059L184.614 14.6255H181.651ZM156.762 26.4773H159.577V7.9588H156.762V26.4773Z" fill="white"/>
<path d="M1.36652 1.32227C0.922073 1.76671 0.773926 2.50745 0.773926 3.39634V36.1371C0.773926 37.026 1.07022 37.7667 1.51467 38.2112L1.66282 38.3593L20.0332 19.9889V19.6926L1.36652 1.32227Z" fill="url(#paint0_linear_311_6964)"/>
<path d="M25.9588 26.2117L19.8848 20.1377V19.6932L25.9588 13.6191L26.107 13.7673L33.3662 17.9154C35.4403 19.1006 35.4403 21.0265 33.3662 22.2117L25.9588 26.2117Z" fill="url(#paint1_linear_311_6964)"/>
<path d="M26.1074 26.063L19.8852 19.8408L1.3667 38.3593C2.10744 39.1001 3.14448 39.1001 4.47781 38.5075L26.1074 26.063Z" fill="url(#paint2_linear_311_6964)"/>
<path d="M26.1074 13.6183L4.47781 1.32196C3.14448 0.581221 2.10744 0.729369 1.3667 1.47011L19.8852 19.8405L26.1074 13.6183Z" fill="url(#paint3_linear_311_6964)"/>
<defs>
<linearGradient id="paint0_linear_311_6964" x1="21.5208" y1="19.6273" x2="-24.3921" y2="19.6273" gradientUnits="userSpaceOnUse">
<stop stop-color="#C0D0D2"/>
</linearGradient>
<linearGradient id="paint1_linear_311_6964" x1="36.0833" y1="19.8428" x2="0.235877" y2="19.8428" gradientUnits="userSpaceOnUse">
<stop stop-color="#C5D3D6"/>
</linearGradient>
<linearGradient id="paint2_linear_311_6964" x1="28.0184" y1="29.2778" x2="-30.962" y2="29.2778" gradientUnits="userSpaceOnUse">
<stop stop-color="white"/>
</linearGradient>
<linearGradient id="paint3_linear_311_6964" x1="28.0184" y1="10.2282" x2="-30.962" y2="10.2282" gradientUnits="userSpaceOnUse">
<stop stop-color="white"/>
</linearGradient>
</defs>
</svg>
