<svg width="260" height="54" viewBox="0 0 260 54" fill="none" xmlns="http://www.w3.org/2000/svg">
<path fill-rule="evenodd" clip-rule="evenodd" d="M171.135 42.9549H165.2V27.1293L170.706 27.214C173.878 27.1901 174.454 30.9766 174.785 33.2842C175.144 35.7899 174.639 39.6662 173.213 41.5925C172.738 42.2335 172.085 42.9549 171.135 42.9549ZM165.716 25.925H165.2V1.92868C173.031 1.92868 175.005 6.88804 175.005 14.3139C175.005 17.1911 174.606 20.4808 172.966 22.6823C171.519 24.6265 169.074 25.925 165.716 25.925ZM157.889 44.2449H172.855C176.277 44.2449 179.803 42.6193 181.543 40.2036C184.487 36.1168 183.72 30.6264 179.754 27.9714C178.234 26.9544 176.9 26.4918 175.112 26.1627C175.108 26.1621 174.938 26.1272 174.901 26.1156L174.661 26.0112C175.065 25.9169 175.201 25.8137 175.523 25.6685L177.12 24.8581C177.891 24.3939 179.277 23.3338 179.888 22.7227C180.148 22.4619 180.244 22.2888 180.488 22.0328C182.085 20.3593 183.176 17.4016 183.176 14.9158C183.176 12.0436 182.982 10.8436 181.714 8.29304C179.31 3.45924 173.929 0.724609 168.555 0.724609H157.889V44.2449Z" fill="white"/>
<path fill-rule="evenodd" clip-rule="evenodd" d="M71.5372 44.2449H73.1714C74.1132 42.4645 78.9084 34.2931 80.1545 32.2201C80.3577 31.8821 82.3859 28.4801 82.4603 28.1613C82.7128 28.3464 83.2101 29.7077 83.3769 30.0828L85.9374 36.1233C86.0742 36.4499 89.3108 43.8819 89.3409 44.2449H97.2538L87.6232 21.4502C86.9697 19.9599 86.9492 20.3702 87.9153 18.7369L90.1195 14.9203C90.3641 14.4957 90.6439 14.0423 90.8848 13.6215L96.7971 3.36436C97.0582 2.89731 97.2904 2.52534 97.5614 2.06438C97.7343 1.77042 98.2178 0.979159 98.2859 0.724609H96.4796C96.4036 1.00902 96.0286 1.56383 95.8777 1.84276L87.6502 16.1493C87.457 16.5043 86.5156 18.2209 86.3308 18.3562C85.9903 17.7132 85.6882 16.8868 85.3867 16.2036C85.0584 15.4605 84.7626 14.7015 84.4408 13.9673L78.8478 0.724609H70.9351L74.5181 9.18265C74.9496 10.1529 75.2906 11.0508 75.7221 12.0211C76.1538 12.9911 76.4947 13.8889 76.9262 14.8591L81.7411 26.2168C81.7877 26.569 80.5517 28.488 80.3593 28.8126C78.9039 31.2734 77.3786 34.1044 75.9283 36.5091L71.8767 43.5521C71.746 43.7768 71.6077 43.9418 71.5372 44.2449Z" fill="white"/>
<path fill-rule="evenodd" clip-rule="evenodd" d="M230.827 44.245H236.245C236.66 44.245 236.503 43.4876 236.503 42.6967C236.503 41.6267 236.377 37.8056 236.589 37.3644C236.951 37.4609 238.207 39.0843 238.588 39.494L241.259 42.4993C242.322 43.7688 244.437 45.9169 245.289 46.9843L247.34 49.2334C247.636 49.1541 248.572 48.1825 248.868 47.9226C249.35 47.4978 251.241 45.8751 251.469 45.5352C250.913 44.7041 248.28 41.9713 247.549 41.0264L242.975 35.7952C242.852 35.6557 242.757 35.5874 242.63 35.4513L240.976 33.4939C241.177 33.1927 243.856 30.8357 244.48 30.2037C244.804 29.8752 245.06 29.7155 245.384 29.3874L247.168 27.7311C247.481 27.4924 247.808 27.2003 248.028 26.8714C245.718 26.8714 246.183 26.6522 245.127 27.6683L241.775 30.6811C241.545 30.8731 241.389 31.0705 241.171 31.2808L236.874 35.1547C236.7 35.301 236.687 35.3487 236.503 35.4718V3.13284C236.503 2.76005 236.5 2.38543 236.505 2.01326C236.51 1.61548 236.62 1.15454 236.245 1.15454H230.827V44.245Z" fill="white"/>
<path fill-rule="evenodd" clip-rule="evenodd" d="M140.085 35.902C140.085 33.5692 140.172 30.4065 141.782 28.7396C143.343 27.1227 145.396 27.8567 146.729 29.3438C148.239 31.0271 147.912 34.6264 147.912 36.8478C147.912 39.6788 146.951 43.1267 143.611 43.1267C141.198 43.1267 140.085 38.5671 140.085 35.902ZM133.892 35.5578C133.892 41.78 141.658 46.632 146.95 43.0253C147.299 42.788 147.589 42.4827 147.912 42.2665V53.9636H153.588V26.8712H148.17C147.744 26.8712 147.912 28.0261 147.912 28.8491C147.535 28.597 147.227 28.1326 146.305 27.6176C144.894 26.83 144.682 26.8712 143.181 26.8712C140.643 26.8712 138.161 28.209 136.756 29.3907C135.92 30.0932 135.346 30.9692 134.788 31.8958C134.289 32.7261 133.892 34.2623 133.892 35.5578Z" fill="white"/>
<path fill-rule="evenodd" clip-rule="evenodd" d="M124.002 44.245H129.593V1.15454H124.002V44.245Z" fill="white"/>
<path fill-rule="evenodd" clip-rule="evenodd" d="M214.742 28.4193L214.656 26.8713H208.979V44.2449H214.656V31.1714C214.656 28.6123 218.584 26.6175 220.433 28.9201C220.898 29.4982 221.02 30.4126 221.02 31.4296V44.1589H226.611V31.7738C226.611 29.0481 224.898 27.6174 222.731 26.8808C220.61 26.1596 217.399 26.2588 215.635 27.5927C215.282 27.8604 215.09 28.1859 214.742 28.4193Z" fill="white"/>
<path fill-rule="evenodd" clip-rule="evenodd" d="M108.176 38.9123C108.176 35.0165 110.851 33.2326 113.03 34.6611C113.285 34.8285 114.025 35.3401 114.025 35.644V41.9228C114.025 42.2641 112.022 44.192 110.1 42.9233C109.017 42.2082 108.176 40.6755 108.176 38.9123ZM107.918 27.8173C107.945 28.1422 108.326 28.7632 108.434 28.7632C108.58 28.7632 109.476 28.4441 109.754 28.3632C114.808 26.8948 114.025 31.0688 114.025 34.01C113.279 33.8363 112.653 32.978 109.638 32.978C106.043 32.978 102.586 35.0274 102.586 38.5686C102.586 40.0981 102.942 41.3414 103.937 42.3773C105.221 43.7136 107.767 44.503 109.896 44.503C111.605 44.503 112.899 43.981 114.025 43.3849V44.245H119.701V31.3437C119.701 29.4939 118.703 28.5517 117.493 27.8756C115.275 26.6358 110.707 26.5885 108.445 27.5699C108.21 27.6717 108.155 27.7539 107.918 27.8173Z" fill="white"/>
<path fill-rule="evenodd" clip-rule="evenodd" d="M193.239 39.2567C193.239 37.8243 193.255 36.6641 194.134 35.5072C195.162 34.1529 196.562 33.7611 198.021 34.6464C198.276 34.8016 199.087 35.3526 199.087 35.6441V41.837C199.087 42.1679 197.247 44.1029 195.242 43.0161C194.252 42.4791 193.239 40.7905 193.239 39.2567ZM192.895 27.8174C192.985 28.1573 193.226 28.3385 193.324 28.7633C193.787 28.7532 194.289 28.4962 194.736 28.369C199.536 27.0036 199.087 30.4206 199.087 34.0101C198.406 33.8515 197.532 32.9781 194.787 32.9781C191.131 32.9781 187.388 35.0411 187.59 38.8078C187.689 40.6611 188.293 42.0651 189.836 43.0892C191.904 44.4615 195.645 45.0582 198.142 43.8165C198.436 43.6704 198.748 43.464 199.087 43.385V44.2451H204.678V30.8275C204.678 28.7381 202.163 27.4416 200.293 27.1277C198.534 26.8324 196.852 26.7732 195.108 27.1062C194.633 27.1966 194.341 27.2604 193.936 27.3967C193.571 27.5196 193.225 27.7402 192.895 27.8174Z" fill="white"/>
<path fill-rule="evenodd" clip-rule="evenodd" d="M21.4792 40.1164L21.3933 44.1591C21.5987 43.9227 21.5725 43.7496 21.7041 43.3518C21.813 43.0233 21.8624 42.8378 21.9646 42.4939C24.0631 35.4258 26.54 26.2214 22.1334 19.5944C18.5953 14.2738 10.8641 11.4427 4.91299 9.46398L1.75093 8.4978C1.45615 8.40171 0.950306 8.23104 0.665283 8.20728L3.72414 10.0509C4.10201 10.2776 4.36286 10.4544 4.73503 10.6742C5.10863 10.895 5.37334 11.0916 5.73556 11.3078C6.06629 11.505 6.37142 11.7247 6.72023 11.9573C7.43411 12.4333 8.01208 12.8335 8.70056 13.3316L14.0181 17.819C14.3267 18.1276 14.5312 18.3076 14.8069 18.6641L15.6086 19.5826C16.385 20.4535 17.6742 22.3707 18.241 23.4872C20.8214 28.5713 21.4792 33.8327 21.4792 40.1164Z" fill="white"/>
<path fill-rule="evenodd" clip-rule="evenodd" d="M28.4453 27.3875C28.4453 31.1387 28.6539 33.5168 29.5809 37.175C29.8818 38.362 30.1636 39.5779 30.4996 40.7289C30.6298 41.1759 31.3161 43.9308 31.6277 44.1591C31.6277 43.7228 31.5418 43.6903 31.5418 43.2131C31.5418 39.7142 31.4455 36.1708 31.945 32.7794C32.3373 30.117 32.8718 27.6004 33.9522 25.1532C34.6872 23.4886 35.7836 21.5434 36.933 20.1356C38.353 18.3962 38.3665 18.4565 39.9921 16.8299C40.1404 16.6814 40.2261 16.5867 40.3773 16.4411C41.7028 15.1653 44.7523 12.9613 46.3353 11.9059L51.2741 8.8458C51.5746 8.66926 52.1034 8.4346 52.2698 8.20728C51.5752 8.36919 50.851 8.59754 50.1948 8.79866C45.7317 10.1673 40.7074 11.9337 36.8154 14.2551C34.6961 15.5193 32.4519 17.276 31.0765 19.2675C30.305 20.3848 29.7424 21.3744 29.2728 22.7962C28.8396 24.1068 28.4453 25.6944 28.4453 27.3875Z" fill="white"/>
<path fill-rule="evenodd" clip-rule="evenodd" d="M5.82581 0.724615L13.1726 7.99909L15.5578 9.82848C15.9735 10.1358 16.4058 10.4373 16.8387 10.6976C17.6852 11.2063 18.6081 11.7797 19.5624 12.1887C24.3476 14.2377 28.4712 14.0036 33.0618 11.7048C35.0643 10.7022 37.7213 9.00185 39.4353 7.58547C40.113 7.02517 42.3437 5.28639 42.9176 4.70273C43.1528 4.46382 43.2261 4.43154 43.4722 4.22554L47.2821 0.638672L45.0171 1.90004C43.7769 2.56151 41.5908 3.79384 40.3765 4.31208C39.9511 4.49349 39.6474 4.69603 39.222 4.87765C35.8893 6.30073 33.6197 7.26794 29.8849 7.92595C28.7058 8.13337 27.8823 8.15794 26.55 8.20548C24.2818 8.28613 22.5964 8.09964 20.3439 7.5367C19.3765 7.29455 18.4974 7.06093 17.6212 6.73284C14.6077 5.60291 13.2208 4.90528 10.3268 3.36234C9.54227 2.94405 8.87329 2.49651 8.09136 2.07131L6.43201 1.06448C6.22764 0.939743 6.09072 0.795312 5.82581 0.724615Z" fill="white"/>
<path fill-rule="evenodd" clip-rule="evenodd" d="M254.221 27.1292V44.2448H259.897V26.8712H254.479C254.281 26.8712 254.221 26.9309 254.221 27.1292Z" fill="white"/>
<path fill-rule="evenodd" clip-rule="evenodd" d="M254.221 21.7103C254.221 22.6138 254.512 23.237 254.971 23.7122C257.149 25.9639 259.897 23.903 259.897 22.1406C259.897 20.7567 259.533 19.8566 258.237 19.2424C257.063 18.6858 255.996 19.0283 255.115 19.766C254.711 20.1042 254.221 21.0064 254.221 21.7103Z" fill="white"/>
<path fill-rule="evenodd" clip-rule="evenodd" d="M5.82784 0.724884V0.638672L5.72717 0.710416L5.82784 0.724884Z" fill="white"/>
</svg>
