<svg width="151" height="32" viewBox="0 0 151 32" fill="none" xmlns="http://www.w3.org/2000/svg">
<path fill-rule="evenodd" clip-rule="evenodd" d="M99.2922 24.9534H95.8547V15.787L99.0436 15.836C100.881 15.8222 101.214 18.0154 101.406 19.352C101.614 20.8033 101.322 23.0486 100.496 24.1643C100.221 24.5356 99.8425 24.9534 99.2922 24.9534V24.9534ZM96.1536 15.0894H95.8547V1.19034C100.39 1.19034 101.534 4.06289 101.534 8.36405C101.534 10.0306 101.303 11.936 100.353 13.2112C99.5144 14.3373 98.0986 15.0894 96.1536 15.0894ZM91.6201 25.7006H100.288C102.27 25.7006 104.313 24.759 105.321 23.3598C107.026 20.9927 106.582 17.8125 104.284 16.2747C103.404 15.6857 102.632 15.4177 101.596 15.2271C101.593 15.2268 101.495 15.2065 101.473 15.1998L101.335 15.1393C101.569 15.0847 101.647 15.0249 101.834 14.9408L102.759 14.4714C103.205 14.2026 104.008 13.5886 104.362 13.2346C104.513 13.0835 104.569 12.9833 104.71 12.835C105.635 11.8656 106.267 10.1525 106.267 8.7127C106.267 7.04909 106.154 6.35402 105.42 4.87668C104.028 2.07686 100.91 0.49292 97.7976 0.49292H91.6201V25.7006V25.7006Z" fill="#003336"/>
<path fill-rule="evenodd" clip-rule="evenodd" d="M41.6037 25.7006H42.5502C43.0957 24.6694 45.8732 19.9363 46.5949 18.7356C46.7126 18.5398 47.8874 16.5694 47.9305 16.3847C48.0768 16.4919 48.3648 17.2804 48.4614 17.4977L49.9445 20.9964C50.0237 21.1856 51.8984 25.4903 51.9158 25.7006H56.4992L50.9209 12.4975C50.5424 11.6343 50.5305 11.872 51.0902 10.9259L52.3669 8.71529C52.5085 8.46936 52.6706 8.20672 52.8101 7.96303L56.2346 2.02191C56.3858 1.75139 56.5203 1.53593 56.6773 1.26894C56.7775 1.09867 57.0575 0.640359 57.0969 0.49292H56.0507C56.0067 0.657657 55.7895 0.979012 55.7021 1.14057L50.9366 9.42719C50.8247 9.63275 50.2794 10.6271 50.1723 10.7054C49.9751 10.333 49.8001 9.85432 49.6255 9.4586C49.4354 9.02817 49.264 8.58856 49.0777 8.1633L45.8381 0.49292H41.2549L43.3302 5.39196C43.5801 5.95395 43.7777 6.47404 44.0276 7.03603C44.2777 7.5979 44.4751 8.11788 44.7251 8.67987L47.5139 15.2584C47.5409 15.4624 46.825 16.5739 46.7136 16.762C45.8706 18.1873 44.9871 19.827 44.1471 21.2199L41.8003 25.2994C41.7246 25.4295 41.6445 25.525 41.6037 25.7006V25.7006Z" fill="#003336"/>
<path fill-rule="evenodd" clip-rule="evenodd" d="M133.867 25.7006H137.006C137.246 25.7006 137.155 25.262 137.155 24.8039C137.155 24.1841 137.082 21.9709 137.205 21.7153C137.415 21.7712 138.142 22.7115 138.363 22.9488L139.91 24.6895C140.525 25.4248 141.75 26.6691 142.244 27.2873L143.432 28.59C143.604 28.5441 144.146 27.9813 144.317 27.8308C144.596 27.5848 145.691 26.6448 145.823 26.448C145.501 25.9666 143.976 24.3837 143.553 23.8364L140.904 20.8064C140.832 20.7256 140.777 20.686 140.704 20.6072L139.746 19.4735C139.862 19.299 141.414 17.9338 141.776 17.5677C141.963 17.3774 142.111 17.2849 142.299 17.0949L143.333 16.1355C143.514 15.9973 143.703 15.8281 143.831 15.6376C142.492 15.6376 142.762 15.5106 142.15 16.0992L140.209 17.8442C140.075 17.9554 139.985 18.0698 139.859 18.1916L137.37 20.4354C137.269 20.5201 137.262 20.5478 137.155 20.6191V1.8878C137.155 1.67188 137.153 1.4549 137.156 1.23933C137.159 1.00893 137.223 0.741943 137.006 0.741943H133.867V25.7006V25.7006Z" fill="#003336"/>
<path fill-rule="evenodd" clip-rule="evenodd" d="M81.3076 20.8684C81.3076 19.5172 81.3581 17.6853 82.2903 16.7199C83.1949 15.7833 84.3838 16.2085 85.1561 17.0698C86.0305 18.0448 85.8409 20.1296 85.8409 21.4163C85.8409 23.056 85.2844 25.0531 83.3501 25.0531C81.9521 25.0531 81.3076 22.4121 81.3076 20.8684ZM77.7207 20.6691C77.7207 24.2731 82.2185 27.0835 85.2841 24.9944C85.4858 24.8569 85.654 24.6801 85.8409 24.5549V31.33H89.129V15.6377H85.9905C85.7441 15.6377 85.8409 16.3066 85.8409 16.7833C85.6229 16.6373 85.4442 16.3683 84.9103 16.07C84.093 15.6138 83.97 15.6377 83.101 15.6377C81.6306 15.6377 80.1933 16.4125 79.3794 17.097C78.8953 17.5039 78.5625 18.0113 78.2397 18.548C77.9505 19.0289 77.7207 19.9187 77.7207 20.6691Z" fill="#003336"/>
<path fill-rule="evenodd" clip-rule="evenodd" d="M71.9922 25.7006H75.2303V0.741943H71.9922V25.7006Z" fill="#003336"/>
<path fill-rule="evenodd" clip-rule="evenodd" d="M124.551 16.5342L124.501 15.6376H121.213V25.7006H124.501V18.1283C124.501 16.646 126.776 15.4906 127.847 16.8243C128.116 17.1591 128.187 17.6888 128.187 18.2778V25.6509H131.426V18.4772C131.426 16.8984 130.434 16.0698 129.178 15.6431C127.95 15.2254 126.09 15.2828 125.068 16.0554C124.864 16.2105 124.753 16.399 124.551 16.5342V16.5342Z" fill="#003336"/>
<path fill-rule="evenodd" clip-rule="evenodd" d="M62.826 22.6117C62.826 20.3552 64.3751 19.3219 65.6373 20.1494C65.7851 20.2463 66.2136 20.5426 66.2136 20.7187V24.3554C66.2136 24.5531 65.0535 25.6698 63.9402 24.935C63.3128 24.5208 62.826 23.633 62.826 22.6117V22.6117ZM62.6765 16.1853C62.6921 16.3735 62.9131 16.7332 62.9755 16.7332C63.06 16.7332 63.5792 16.5483 63.74 16.5015C66.6671 15.651 66.2136 18.0686 66.2136 19.7722C65.7819 19.6716 65.4193 19.1745 63.6729 19.1745C61.5905 19.1745 59.5879 20.3615 59.5879 22.4126C59.5879 23.2985 59.7943 24.0187 60.3707 24.6187C61.1144 25.3927 62.5892 25.85 63.8223 25.85C64.812 25.85 65.5614 25.5476 66.2136 25.2023V25.7005H69.5016V18.2278C69.5016 17.1564 68.9232 16.6107 68.2223 16.2191C66.9376 15.501 64.2921 15.4735 62.9817 16.042C62.8458 16.101 62.8137 16.1486 62.6765 16.1853V16.1853Z" fill="#003336"/>
<path fill-rule="evenodd" clip-rule="evenodd" d="M112.096 22.8112C112.096 21.9815 112.105 21.3095 112.614 20.6394C113.21 19.855 114.021 19.628 114.866 20.1408C115.014 20.2307 115.483 20.5498 115.483 20.7187V24.3057C115.483 24.4974 114.418 25.6182 113.256 24.9887C112.682 24.6777 112.096 23.6996 112.096 22.8112V22.8112ZM111.896 16.1853C111.949 16.3822 112.088 16.4872 112.145 16.7332C112.413 16.7273 112.704 16.5785 112.963 16.5048C115.743 15.714 115.483 17.6932 115.483 19.7722C115.089 19.6803 114.582 19.1745 112.992 19.1745C110.875 19.1745 108.707 20.3694 108.824 22.5511C108.881 23.6246 109.231 24.4378 110.125 25.031C111.323 25.8259 113.489 26.1715 114.936 25.4523C115.106 25.3677 115.287 25.2481 115.483 25.2023V25.7005H118.722V17.9288C118.722 16.7186 117.265 15.9677 116.182 15.7859C115.163 15.6148 114.189 15.5805 113.178 15.7734C112.903 15.8257 112.734 15.8627 112.5 15.9416C112.288 16.0128 112.088 16.1406 111.896 16.1853V16.1853Z" fill="#003336"/>
<path fill-rule="evenodd" clip-rule="evenodd" d="M12.6095 23.3092L12.5597 25.6508C12.6787 25.5139 12.6635 25.4136 12.7398 25.1832C12.8028 24.9929 12.8314 24.8855 12.8906 24.6863C14.1061 20.5924 15.5408 15.261 12.9884 11.4225C10.9391 8.34075 6.46106 6.70091 3.01405 5.55481L1.18253 4.99518C1.0118 4.93952 0.718801 4.84067 0.553711 4.8269L2.32545 5.89475C2.54432 6.02607 2.69541 6.12845 2.91098 6.25577C3.12737 6.38368 3.2807 6.49757 3.4905 6.62277C3.68207 6.73703 3.8588 6.86424 4.06084 6.99897C4.47433 7.27467 4.8091 7.50647 5.20788 7.795L8.28787 10.3942C8.46661 10.5729 8.5851 10.6772 8.74478 10.8837L9.2091 11.4157C9.65884 11.9201 10.4056 13.0306 10.7339 13.6773C12.2285 16.6221 12.6095 19.6696 12.6095 23.3092V23.3092Z" fill="#003336"/>
<path fill-rule="evenodd" clip-rule="evenodd" d="M16.6445 15.9364C16.6445 18.1092 16.7654 19.4866 17.3023 21.6055C17.4766 22.293 17.6398 22.9973 17.8344 23.664C17.9098 23.9229 18.3073 25.5186 18.4878 25.6508C18.4878 25.3981 18.438 25.3792 18.438 25.1028C18.438 23.0762 18.3823 21.0238 18.6716 19.0595C18.8988 17.5174 19.2084 16.0597 19.8342 14.6423C20.2599 13.6781 20.895 12.5514 21.5607 11.736C22.3833 10.7285 22.391 10.7634 23.3326 9.82126C23.4185 9.73525 23.4682 9.68042 23.5557 9.59605C24.3235 8.85708 26.0898 7.58049 27.0067 6.9692L29.8674 5.19675C30.0414 5.09449 30.3477 4.95858 30.4441 4.8269C30.0418 4.92069 29.6223 5.05295 29.2422 5.16944C26.6571 5.96218 23.7469 6.98531 21.4926 8.32992C20.2651 9.06218 18.9652 10.0797 18.1686 11.2332C17.7217 11.8804 17.3958 12.4535 17.1238 13.2771C16.8729 14.0362 16.6445 14.9558 16.6445 15.9364V15.9364Z" fill="#003336"/>
<path fill-rule="evenodd" clip-rule="evenodd" d="M3.54297 0.492895L7.79835 4.7064L9.17991 5.766C9.42066 5.94404 9.67106 6.11866 9.92181 6.2694C10.4121 6.56404 10.9467 6.89621 11.4994 7.13308C14.2711 8.31989 16.6596 8.18434 19.3185 6.85279C20.4784 6.27209 22.0174 5.28721 23.0102 4.46682C23.4027 4.14229 24.6947 3.13515 25.0271 2.79709C25.1634 2.65871 25.2059 2.64001 25.3484 2.52069L27.5551 0.443115L26.2432 1.17372C25.5249 1.55685 24.2586 2.27064 23.5553 2.57081C23.3089 2.67589 23.133 2.79321 22.8866 2.8984C20.9562 3.72268 19.6416 4.2829 17.4784 4.66403C16.7955 4.78417 16.3184 4.7984 15.5468 4.82594C14.233 4.87265 13.2568 4.76463 11.9521 4.43857C11.3917 4.29831 10.8826 4.163 10.3751 3.97296C8.62957 3.31849 7.82625 2.91441 6.15005 2.02071C5.69561 1.77843 5.30813 1.51921 4.85522 1.27292L3.89409 0.689749C3.77572 0.617501 3.69641 0.533844 3.54297 0.492895V0.492895Z" fill="#003336"/>
<path fill-rule="evenodd" clip-rule="evenodd" d="M147.417 15.7869V25.7005H150.705V15.6375H147.566C147.452 15.6375 147.417 15.672 147.417 15.7869V15.7869Z" fill="#003336"/>
<path fill-rule="evenodd" clip-rule="evenodd" d="M147.417 12.6483C147.417 13.1715 147.585 13.5325 147.852 13.8078C149.113 15.112 150.705 13.9183 150.705 12.8975C150.705 12.0959 150.494 11.5745 149.743 11.2188C149.063 10.8964 148.445 11.0948 147.935 11.522C147.701 11.718 147.417 12.2405 147.417 12.6483V12.6483Z" fill="#003336"/>
<path fill-rule="evenodd" clip-rule="evenodd" d="M3.54416 0.493479V0.443115L3.48535 0.485027L3.54416 0.493479Z" fill="#003336"/>
</svg>
