<svg width="19" height="19" viewBox="0 0 19 19" fill="none" xmlns="http://www.w3.org/2000/svg">
<rect width="17.7805" height="17.7805" transform="matrix(0 -1 -1 0 18.6836 18.0098)" fill="white" fill-opacity="0.01"/>
<path fill-rule="evenodd" clip-rule="evenodd" d="M17.7739 8.71343C17.878 8.81734 17.9424 8.96091 17.9424 9.11954C17.9424 9.27833 17.878 9.4219 17.7739 9.52581L10.1985 17.1009C9.97426 17.3249 9.61116 17.3249 9.38694 17.1009C9.27483 16.9888 9.21877 16.8419 9.21877 16.6951C9.21877 16.5482 9.27483 16.4015 9.38694 16.2893L15.983 9.69347H2.21713C1.90038 9.69347 1.64336 9.43662 1.64336 9.11954C1.64336 8.80262 1.90038 8.54577 2.21713 8.54577L15.983 8.54577L9.38694 1.94973C9.16272 1.72551 9.16272 1.36241 9.38694 1.13819C9.61116 0.913973 9.97426 0.913973 10.1985 1.13819L17.7739 8.71343Z" fill="#C8C8C8"/>
</svg>
