<svg width="18" height="19" viewBox="0 0 18 19" fill="none" xmlns="http://www.w3.org/2000/svg">
<rect width="18.1474" height="16.6351" transform="matrix(0 -1 -1 0 17.2529 18.585)" fill="white" fill-opacity="0.01"/>
<path fill-rule="evenodd" clip-rule="evenodd" d="M16.4019 9.09682C16.4993 9.20288 16.5596 9.3494 16.5596 9.5113C16.5596 9.67338 16.4993 9.8199 16.4019 9.92596L9.3145 17.6574C9.10473 17.886 8.76502 17.886 8.55524 17.6574C8.45036 17.5429 8.39791 17.393 8.39791 17.2432C8.39791 17.0933 8.45036 16.9435 8.55524 16.8291L14.7264 10.0971H1.84729C1.55095 10.0971 1.31049 9.83493 1.31049 9.5113C1.31049 9.18785 1.55095 8.9257 1.84729 8.9257L14.7264 8.9257L8.55524 2.19354C8.34547 1.9647 8.34547 1.5941 8.55524 1.36526C8.76502 1.13641 9.10473 1.13641 9.3145 1.36526L16.4019 9.09682Z" fill="white"/>
</svg>
