<svg width="17" height="19" viewBox="0 0 17 19" fill="none" xmlns="http://www.w3.org/2000/svg">
<rect x="0.0166016" y="18.252" width="18.1474" height="16.6351" transform="rotate(-90 0.0166016 18.252)" fill="white" fill-opacity="0.01"/>
<path fill-rule="evenodd" clip-rule="evenodd" d="M0.867605 8.76381C0.770232 8.86987 0.709961 9.0164 0.709961 9.1783C0.709961 9.34037 0.770232 9.4869 0.867605 9.59295L7.95503 17.3243C8.1648 17.553 8.50451 17.553 8.71429 17.3243C8.81918 17.2099 8.87162 17.06 8.87162 16.9102C8.87162 16.7603 8.81918 16.6105 8.71429 16.4961L2.54314 9.76407H15.4222C15.7186 9.76407 15.959 9.50192 15.959 9.1783C15.959 8.85484 15.7186 8.59269 15.4222 8.59269L2.54314 8.59269L8.71429 1.86053C8.92406 1.63169 8.92406 1.2611 8.71429 1.03225C8.50451 0.803404 8.1648 0.803404 7.95503 1.03225L0.867605 8.76381Z" fill="white"/>
</svg>
