<svg width="30" height="30" viewBox="0 0 30 30" fill="none" xmlns="http://www.w3.org/2000/svg">
<g clip-path="url(#clip0_39_16222)">
<path d="M7.46473 7.62084C7.82873 7.62084 8.1238 7.32577 8.1238 6.96177C8.1238 6.59778 7.82873 6.3027 7.46473 6.3027C7.10074 6.3027 6.80566 6.59778 6.80566 6.96177C6.80566 7.32577 7.10074 7.62084 7.46473 7.62084Z" fill="white"/>
<path d="M4.82899 7.62084C5.19299 7.62084 5.48806 7.32577 5.48806 6.96177C5.48806 6.59778 5.19299 6.3027 4.82899 6.3027C4.465 6.3027 4.16992 6.59778 4.16992 6.96177C4.16992 7.32577 4.465 7.62084 4.82899 7.62084Z" fill="white"/>
<path d="M23.2829 11.5754C22.8874 11.5754 22.6238 11.839 22.6238 12.2344V24.0981C22.6238 24.4936 22.3601 24.7572 21.9647 24.7572H8.78288C8.38741 24.7572 8.1238 24.4935 8.1238 24.0981V12.2345C8.1238 11.839 7.86014 11.5754 7.46473 11.5754C7.06933 11.5754 6.80566 11.8391 6.80566 12.2345V24.0982C6.80566 25.2186 7.66247 26.0754 8.78293 26.0754H21.9647C23.0852 26.0754 23.942 25.2186 23.942 24.0982V12.2345C23.942 11.839 23.6783 11.5754 23.2829 11.5754Z" fill="white"/>
<path d="M27.8968 3.66632H2.85129C1.73083 3.66632 0.874023 4.52312 0.874023 5.64359V12.2345C0.874023 13.355 1.73083 14.2118 2.85129 14.2118H4.82856C5.22402 14.2118 5.48763 13.9481 5.48763 13.5527C5.48763 13.1573 5.22397 12.8936 4.82856 12.8936H2.85129C2.45583 12.8936 2.19222 12.63 2.19222 12.2346V5.64359C2.19222 5.24812 2.45588 4.98452 2.85129 4.98452H27.8968C28.2922 4.98452 28.5558 5.24818 28.5558 5.64359V12.2345C28.5558 12.63 28.2922 12.8936 27.8968 12.8936H25.9195C25.524 12.8936 25.2604 13.1573 25.2604 13.5527C25.2604 13.9481 25.5241 14.2117 25.9195 14.2117H27.8968C29.0172 14.2117 29.874 13.3549 29.874 12.2345V5.64359C29.874 4.52312 29.0172 3.66632 27.8968 3.66632Z" fill="white"/>
<path d="M25.9199 8.93904H4.82899C4.43353 8.93904 4.16992 9.2027 4.16992 9.59811V10.9163C4.16992 11.3118 4.43358 11.5754 4.82899 11.5754C5.2244 11.5754 5.48806 11.3117 5.48806 10.9163V10.2572H25.2608V10.9163C25.2608 11.3118 25.5245 11.5754 25.9199 11.5754C26.3153 11.5754 26.5789 11.3117 26.5789 10.9163V9.59811C26.579 9.20265 26.3154 8.93904 25.9199 8.93904Z" fill="white"/>
<path d="M20.6469 12.8936C20.2514 12.8936 19.9878 13.1572 19.9878 13.5527V20.9345C19.4605 21.1322 18.9991 21.5936 18.8014 22.1209H11.9469C11.7491 21.5936 11.2878 21.1322 10.7605 20.9345V13.5527C10.7605 13.1572 10.4969 12.8936 10.1015 12.8936C9.70599 12.8936 9.44238 13.1572 9.44238 13.5527V21.4617C9.44238 21.8572 9.70605 22.1208 10.1015 22.1208C10.4969 22.1208 10.7605 22.3845 10.7605 22.7799C10.7605 23.1753 11.0242 23.4389 11.4196 23.4389H19.3287C19.7241 23.4389 19.9877 23.1753 19.9877 22.7799C19.9877 22.3844 20.2514 22.1208 20.6468 22.1208C21.0423 22.1208 21.3059 21.8571 21.3059 21.4617V13.5527C21.3059 13.1572 21.0423 12.8936 20.6469 12.8936Z" fill="white"/>
<path d="M18.6699 11.5754C18.2744 11.5754 18.0108 11.839 18.0108 12.2344C18.0107 13.6845 16.8244 14.8708 15.3744 14.8708C13.9244 14.8708 12.7381 13.6845 12.7381 12.2345C12.7381 11.839 12.4744 11.5754 12.079 11.5754C11.6836 11.5754 11.4199 11.8391 11.4199 12.2345C11.4199 14.4095 13.1995 16.189 15.3745 16.189C17.5495 16.189 19.329 14.4095 19.329 12.2345C19.3289 11.839 19.0653 11.5754 18.6699 11.5754Z" fill="white"/>
</g>
<defs>
<clipPath id="clip0_39_16222">
<rect width="29" height="29" fill="white" transform="translate(0.874023 0.37085)"/>
</clipPath>
</defs>
</svg>
