<svg width="31" height="31" viewBox="0 0 31 31" fill="none" xmlns="http://www.w3.org/2000/svg">
<g clip-path="url(#clip0_39_16244)">
<path d="M29.422 29.4031V6.66122H27.7038L23.8329 2.30633H21.1963V0.37085H2.32516V29.4031H1.35742V30.3708H12.0026H13.9381H17.809H18.7768H22.6477H23.6155H27.4865H29.4219H30.3897V29.4031H29.422ZM23.3988 3.27408L26.4089 6.66122H21.1962V5.20956H20.2284V6.66122H15.0157L18.0268 3.27408H23.3988ZM14.9059 4.72574V3.758H16.3014L15.4411 4.72574H14.9059ZM12.0026 29.4031H6.68005V22.145H12.0027V29.4031H12.0026ZM12.0026 16.3386H10.0671V15.3709H12.0026V16.3386ZM12.0026 12.4677H10.0671V11.4999H12.0026V12.4677ZM12.0026 8.59671H10.0671V7.62897H12.0026V8.59671ZM9.09936 6.66122V9.56445H12.0026V10.5322H9.09936V13.4354H12.0026V14.4032H9.09936V17.3064H12.0026V19.2419H4.26065V20.2096H12.0026V21.1774H4.26065V22.1451H5.71231V29.4032H3.29291V1.33859H20.2284V2.30633H17.5918L17.1617 2.79026H13.9382V5.69348H14.5813L13.721 6.66122H12.9705H12.0028H9.09936ZM16.8414 29.4031H14.9059V26.4999C14.9059 25.9662 15.34 25.5321 15.8737 25.5321C16.4073 25.5321 16.8414 25.9662 16.8414 26.4999V29.4031ZM21.6801 29.4031H19.7446V26.4999C19.7446 25.9662 20.1787 25.5321 20.7124 25.5321C21.246 25.5321 21.6801 25.9662 21.6801 26.4999V29.4031ZM26.5188 29.4031H24.5833V26.4999C24.5833 25.9662 25.0174 25.5321 25.5511 25.5321C26.0848 25.5321 26.5188 25.9662 26.5188 26.4999V29.4031ZM28.4543 29.4031H27.4866V26.4999C27.4866 25.4324 26.6185 24.5644 25.5511 24.5644C24.4836 24.5644 23.6156 25.4324 23.6156 26.4999V29.4031H22.6478V26.4999C22.6478 25.4324 21.7798 24.5644 20.7124 24.5644C19.6449 24.5644 18.7769 25.4324 18.7769 26.4999V29.4031H17.8091V26.4999C17.8091 25.4324 16.9411 24.5644 15.8737 24.5644C14.8062 24.5644 13.9382 25.4324 13.9382 26.4999V29.4031H12.9704V17.3064V14.4032V13.4354V10.5322V9.56445V7.62897H28.4543V29.4031Z" fill="black"/>
<path d="M17.8094 20.2096H13.9385V23.1128H17.8094V20.2096ZM16.8417 22.1451H14.9062V21.1774H16.8417V22.1451Z" fill="black"/>
<path d="M22.6483 20.2096H18.7773V23.1128H22.6483V20.2096ZM21.6806 22.1451H19.7451V21.1774H21.6806V22.1451Z" fill="black"/>
<path d="M27.4862 20.2096H23.6152V23.1128H27.4862V20.2096ZM26.5185 22.1451H24.583V21.1774H26.5185V22.1451Z" fill="black"/>
<path d="M17.8094 16.3386H13.9385V19.2419H17.8094V16.3386ZM16.8417 18.2741H14.9062V17.3064H16.8417V18.2741Z" fill="black"/>
<path d="M22.6483 16.3386H18.7773V19.2419H22.6483V16.3386ZM21.6806 18.2741H19.7451V17.3064H21.6806V18.2741Z" fill="black"/>
<path d="M27.4862 16.3386H23.6152V19.2419H27.4862V16.3386ZM26.5185 18.2741H24.583V17.3064H26.5185V18.2741Z" fill="black"/>
<path d="M17.8094 12.4677H13.9385V15.3709H17.8094V12.4677ZM16.8417 14.4032H14.9062V13.4354H16.8417V14.4032Z" fill="black"/>
<path d="M22.6483 12.4677H18.7773V15.3709H22.6483V12.4677ZM21.6806 14.4032H19.7451V13.4354H21.6806V14.4032Z" fill="black"/>
<path d="M27.4862 12.4677H23.6152V15.3709H27.4862V12.4677ZM26.5185 14.4032H24.583V13.4354H26.5185V14.4032Z" fill="black"/>
<path d="M17.8094 8.59671H13.9385V11.4999H17.8094V8.59671ZM16.8417 10.5322H14.9062V9.56445H16.8417V10.5322Z" fill="black"/>
<path d="M22.6483 8.59671H18.7773V11.4999H22.6483V8.59671ZM21.6806 10.5322H19.7451V9.56445H21.6806V10.5322Z" fill="black"/>
<path d="M27.4862 8.59671H23.6152V11.4999H27.4862V8.59671ZM26.5185 10.5322H24.583V9.56445H26.5185V10.5322Z" fill="black"/>
<path d="M4.26074 17.3064H8.13171V14.4032H4.26074V17.3064ZM5.22848 15.3709H7.16397V16.3386H5.22848V15.3709Z" fill="black"/>
<path d="M4.26074 13.4354H8.13171V10.5322H4.26074V13.4354ZM5.22848 11.4999H7.16397V12.4677H5.22848V11.4999Z" fill="black"/>
<path d="M4.26074 9.56445H8.13171V6.66122H4.26074V9.56445ZM5.22848 7.62897H7.16397V8.59671H5.22848V7.62897Z" fill="black"/>
<path d="M4.26074 5.69348H8.13171V2.79025H4.26074V5.69348ZM5.22848 3.75799H7.16397V4.72574H5.22848V3.75799Z" fill="black"/>
<path d="M9.09961 5.69348H12.9706V2.79025H9.09961V5.69348ZM10.0674 3.75799H12.0028V4.72574H10.0674V3.75799Z" fill="black"/>
</g>
<defs>
<clipPath id="clip0_39_16244">
<rect width="30" height="30" fill="white" transform="translate(0.874023 0.37085)"/>
</clipPath>
</defs>
</svg>
