<svg width="18" height="18" viewBox="0 0 18 18" fill="none" xmlns="http://www.w3.org/2000/svg">
<g clip-path="url(#clip0_39_16059)">
<g clip-path="url(#clip1_39_16059)">
<path d="M10.3911 8.35333C10.3911 7.8234 10.0263 7.38091 9.53581 7.25345V2.92725H8.96564V7.25353C8.47515 7.38098 8.11035 7.82348 8.11035 8.35341C8.11035 8.98233 8.62177 9.49375 9.25069 9.49375C9.46155 9.49375 9.65675 9.43236 9.82635 9.3322L12.9568 12.4627L13.36 12.0595L10.2295 8.92906C10.3297 8.75947 10.3911 8.56427 10.3911 8.35333ZM9.25076 8.92358C8.93645 8.92358 8.68059 8.66772 8.68059 8.35341C8.68059 8.03909 8.93645 7.78324 9.25076 7.78324C9.56508 7.78324 9.82093 8.03909 9.82093 8.35341C9.82093 8.66772 9.565 8.92358 9.25076 8.92358Z" fill="#223263"/>
<path d="M17.2263 8.06824C17.0788 3.8932 13.7112 0.525592 9.53612 0.378093V0.37085H8.96595V0.378093C4.7909 0.525592 1.4233 3.8932 1.2758 8.06824H1.26855V8.63841H1.2758C1.4233 12.8135 4.7909 16.181 8.96595 16.3286V16.3708H9.53612V16.3286C13.7112 16.1811 17.0787 12.8135 17.2263 8.63841H17.2335V8.06824H17.2263ZM16.6562 8.63841C16.5865 10.4674 15.8519 12.1282 14.6867 13.3858L13.9319 12.6311L13.5288 13.0342L14.2836 13.789C13.026 14.9542 11.3652 15.6887 9.53619 15.7584V14.6252H8.96602V15.7584C7.06536 15.686 5.34637 14.8953 4.07265 13.6498L4.83085 12.8916L4.42771 12.4885L3.68071 13.2355C2.59393 11.9971 1.91277 10.3956 1.84589 8.63841H3.26411V8.06824H1.84589C1.91833 6.16758 2.70901 4.44859 3.95449 3.17487L4.57017 3.79055L4.9733 3.38741L4.36889 2.783C5.6072 1.69622 7.20876 1.01513 8.96602 0.948262V2.11648H9.53619V0.948262C11.3652 1.01791 13.026 1.75248 14.2836 2.9177L13.6714 3.52994L14.0745 3.93307L14.6867 3.32083C15.8519 4.57853 16.5865 6.23928 16.6562 8.06824H15.238V8.63841H16.6562Z" fill="#223263"/>
</g>
</g>
<defs>
<clipPath id="clip0_39_16059">
<rect width="16.9338" height="16.9338" fill="white" transform="translate(0.799805 0.36792)"/>
</clipPath>
<clipPath id="clip1_39_16059">
<rect width="16" height="16" fill="white" transform="translate(1.25098 0.37085)"/>
</clipPath>
</defs>
</svg>
