<svg width="51" height="51" viewBox="0 0 51 51" fill="none" xmlns="http://www.w3.org/2000/svg">
<g clip-path="url(#clip0_40_20281)">
<path d="M25.1911 9.09668C21.8947 9.09668 18.6724 10.0742 15.9316 11.9055C13.1908 13.7369 11.0546 16.3399 9.7931 19.3853C8.53164 22.4307 8.20158 25.7818 8.84467 29.0148C9.48775 32.2479 11.0751 35.2176 13.406 37.5485C15.7369 39.8793 18.7066 41.4667 21.9396 42.1098C25.1726 42.7528 28.5237 42.4228 31.5691 41.1613C34.6146 39.8999 37.2176 37.7637 39.0489 35.0228C40.8803 32.282 41.8578 29.0597 41.8578 25.7633C41.8578 21.3431 40.1018 17.1038 36.9762 13.9782C33.8506 10.8526 29.6114 9.09668 25.1911 9.09668ZM25.1911 39.6522C22.4441 39.6522 19.7589 38.8377 17.4748 37.3115C15.1908 35.7854 13.4106 33.6163 12.3594 31.0784C11.3082 28.5405 11.0332 25.7479 11.5691 23.0538C12.105 20.3596 13.4278 17.8848 15.3702 15.9424C17.3126 14 19.7873 12.6772 22.4815 12.1413C25.1757 11.6054 27.9683 11.8805 30.5061 12.9317C33.044 13.9829 35.2131 15.7631 36.7393 18.0471C38.2654 20.3311 39.08 23.0164 39.08 25.7633C39.08 27.5873 38.7207 29.3933 38.0227 31.0784C37.3248 32.7635 36.3017 34.2946 35.012 35.5843C33.7223 36.874 32.1912 37.897 30.5061 38.595C28.8211 39.293 27.015 39.6522 25.1911 39.6522Z" fill="white"/>
<path d="M25.1911 28.6388C24.7122 28.6388 24.2529 28.4486 23.9143 28.1099C23.5757 27.7713 23.3855 27.3121 23.3855 26.8332V18.4999C23.3855 18.021 23.5757 17.5618 23.9143 17.2232C24.2529 16.8846 24.7122 16.6943 25.1911 16.6943C25.6699 16.6943 26.1292 16.8846 26.4678 17.2232C26.8064 17.5618 26.9966 18.021 26.9966 18.4999V26.8332C26.9966 27.3121 26.8064 27.7713 26.4678 28.1099C26.1292 28.4486 25.6699 28.6388 25.1911 28.6388Z" fill="white"/>
<path d="M25.1217 34.819C26.2723 34.819 27.205 33.8863 27.205 32.7357C27.205 31.5851 26.2723 30.6523 25.1217 30.6523C23.9711 30.6523 23.0383 31.5851 23.0383 32.7357C23.0383 33.8863 23.9711 34.819 25.1217 34.819Z" fill="white"/>
</g>
<defs>
<clipPath id="clip0_40_20281">
<rect width="50" height="50" fill="white" transform="translate(0.191162 0.763672)"/>
</clipPath>
</defs>
</svg>
