<svg width="21" height="21" viewBox="0 0 21 21" fill="none" xmlns="http://www.w3.org/2000/svg">
<path d="M1.36523 10.3657C1.36523 5.1282 5.62735 0.866211 10.8652 0.866211C16.1031 0.866211 20.3652 5.1282 20.3652 10.3657C20.3652 15.6033 16.1031 19.8652 10.8652 19.8652C5.62735 19.8652 1.36523 15.6033 1.36523 10.3657ZM2.18342 10.3657C2.18342 15.1531 6.07767 19.0471 10.8652 19.0471C15.6528 19.0471 19.5471 15.1532 19.5471 10.3657C19.5471 5.57834 15.6528 1.68439 10.8652 1.68439C6.07767 1.68439 2.18342 5.57834 2.18342 10.3657Z" stroke="#848484"/>
<path d="M10.4561 9.15421C10.4561 8.92829 10.6392 8.74512 10.8651 8.74512C11.091 8.74512 11.2742 8.92833 11.2742 9.15421V15.2138C11.2742 15.4397 11.0911 15.6229 10.8651 15.6229C10.6392 15.6229 10.4561 15.4397 10.4561 15.2138V9.15421Z" stroke="#848484"/>
<path d="M10.4561 5.51797C10.4561 5.41099 10.5005 5.30385 10.5754 5.22878C10.6516 5.153 10.7586 5.10889 10.8651 5.10889C10.9717 5.10889 11.0787 5.15298 11.1548 5.22875C11.2298 5.30388 11.2742 5.41106 11.2742 5.51797C11.2742 5.62422 11.2303 5.73113 11.1545 5.80748C11.0783 5.8831 10.9715 5.92706 10.8651 5.92706C10.7582 5.92706 10.651 5.88266 10.576 5.80775C10.5001 5.73145 10.4561 5.62443 10.4561 5.51797Z" stroke="#848484"/>
</svg>
