<svg width="37" height="15" viewBox="0 0 37 15" fill="none" xmlns="http://www.w3.org/2000/svg">
<path d="M34.8141 5.99456H33.9482C33.2698 2.80492 30.4626 0.403564 27.1069 0.403564C24.2997 0.403564 21.8677 2.08962 20.7564 4.51287C19.9265 3.89246 19.0677 3.6151 18.1801 3.68809C17.4657 3.74648 16.8523 4.02384 16.3327 4.39609C15.1997 2.03853 12.8038 0.403564 10.0327 0.403564C6.67701 0.403564 3.8698 2.80492 3.19145 5.99456H2.2533C1.47392 5.99456 0.838867 6.65876 0.838867 7.48354C0.838867 8.30832 1.47392 8.97253 2.2533 8.97253H3.19145C3.87701 12.1622 6.68423 14.5635 10.0399 14.5635C13.7347 14.5635 16.7657 11.6585 17.0183 7.98717C17.2853 7.50544 17.8698 6.70255 18.4038 6.65876C18.8296 6.62227 19.4791 7.14779 20.1286 8.06746C20.4244 11.695 23.4409 14.5562 27.0997 14.5562C30.4554 14.5562 33.2626 12.1549 33.9409 8.96523H34.8069C35.5719 8.96523 36.1997 8.30102 36.1997 7.47624C36.1997 6.65146 35.5863 5.99456 34.8141 5.99456ZM10.0399 11.5783C7.80279 11.5783 5.99145 9.73892 5.99145 7.48354C5.99145 5.22817 7.81 3.38883 10.0399 3.38883C12.277 3.38883 14.0884 5.22817 14.0884 7.48354C14.0884 9.73892 12.2698 11.5783 10.0399 11.5783ZM27.1069 11.5783C24.8698 11.5783 23.0585 9.73892 23.0585 7.48354C23.0585 5.22817 24.877 3.38883 27.1069 3.38883C29.3368 3.38883 31.1554 5.22817 31.1554 7.48354C31.1554 9.73892 29.344 11.5783 27.1069 11.5783Z" fill="#003336"/>
</svg>
