<svg width="39" height="39" viewBox="0 0 39 39" fill="none" xmlns="http://www.w3.org/2000/svg">
<path fill-rule="evenodd" clip-rule="evenodd" d="M19.3916 0.393555C14.3183 0.393555 13.6816 0.41641 11.689 0.509837C9.70029 0.603664 8.34284 0.928051 7.15506 1.40401C5.92642 1.8956 4.8842 2.55319 3.84587 3.62339C2.80676 4.69318 2.16851 5.76699 1.68982 7.03246C1.22669 8.25663 0.911457 9.65562 0.821945 11.7038C0.732823 13.7568 0.709473 14.4132 0.709473 19.6402C0.709473 24.8673 0.732045 25.5213 0.822335 27.5743C0.913792 29.6233 1.22864 31.0219 1.6902 32.2456C2.16773 33.5115 2.80598 34.5853 3.8447 35.6551C4.88264 36.7257 5.92487 37.3849 7.15273 37.8765C8.34128 38.3524 9.69913 38.6768 11.6874 38.7706C13.68 38.8641 14.3163 38.8869 19.3893 38.8869C24.463 38.8869 25.0978 38.8641 27.0904 38.7706C29.0791 38.6768 30.4381 38.3524 31.6267 37.8765C32.8549 37.3849 33.8956 36.7257 34.9335 35.6551C35.9726 34.5853 36.6109 33.5115 37.0896 32.246C37.5488 31.0219 37.864 29.6229 37.9574 27.5747C38.047 25.5217 38.0703 24.8673 38.0703 19.6402C38.0703 14.4132 38.047 13.7572 37.9574 11.7042C37.864 9.65522 37.5488 8.25663 37.0896 7.03286C36.6109 5.76699 35.9726 4.69318 34.9335 3.62339C33.8944 2.55279 32.8553 1.8952 31.6255 1.40401C30.4346 0.928051 29.0764 0.603664 27.0877 0.509837C25.0951 0.41641 24.4607 0.393555 19.3858 0.393555H19.3916ZM17.7159 3.86239C18.0413 3.86186 18.3913 3.86202 18.7691 3.8622L19.3917 3.86239C24.3794 3.86239 24.9706 3.88083 26.9402 3.97305C28.7616 4.05886 29.7501 4.37242 30.4086 4.63586C31.2804 4.98471 31.9019 5.40172 32.5553 6.07535C33.2091 6.74899 33.6139 7.39054 33.9532 8.28872C34.2089 8.96637 34.5137 9.98484 34.5965 11.8614C34.6861 13.8903 34.7055 14.4998 34.7055 19.6363C34.7055 24.7727 34.6861 25.3822 34.5965 27.4111C34.5133 29.2877 34.2089 30.3061 33.9532 30.9838C33.6146 31.882 33.2091 32.5215 32.5553 33.1947C31.9015 33.8684 31.2807 34.2854 30.4086 34.6342C29.7509 34.8989 28.7616 35.2116 26.9402 35.2974C24.971 35.3897 24.3794 35.4097 19.3917 35.4097C14.4036 35.4097 13.8124 35.3897 11.8432 35.2974C10.0218 35.2108 9.0333 34.8973 8.37442 34.6338C7.50265 34.285 6.87997 33.868 6.22615 33.1943C5.57232 32.5207 5.16758 31.8808 4.82821 30.9822C4.57252 30.3045 4.26779 29.2861 4.1849 27.4095C4.09539 25.3806 4.07749 24.7711 4.07749 19.6314C4.07749 14.4918 4.09539 13.8855 4.1849 11.8566C4.26818 9.98003 4.57252 8.96156 4.82821 8.28311C5.1668 7.38493 5.57232 6.74338 6.22615 6.06974C6.87997 5.39611 7.50265 4.9791 8.37442 4.62945C9.03291 4.36481 10.0218 4.05205 11.8432 3.96584C13.5665 3.88564 14.2343 3.86158 17.7159 3.85757V3.86239ZM27.1215 9.36689C27.1215 8.09139 28.1255 7.05809 29.3631 7.05809V7.05728C30.6007 7.05728 31.6048 8.09179 31.6048 9.36689C31.6048 10.642 30.6007 11.6765 29.3631 11.6765C28.1255 11.6765 27.1215 10.642 27.1215 9.36689ZM19.3913 9.75636C14.0935 9.75657 9.79838 14.182 9.79838 19.6403C9.79838 25.0988 14.0938 29.5223 19.3917 29.5223C24.6896 29.5223 28.9834 25.0988 28.9834 19.6403C28.9834 14.1819 24.6892 9.75636 19.3913 9.75636ZM25.6185 19.6401C25.6185 16.0967 22.8304 13.2245 19.3916 13.2245C15.9524 13.2245 13.1647 16.0967 13.1647 19.6401C13.1647 23.1831 15.9524 26.0557 19.3916 26.0557C22.8304 26.0557 25.6185 23.1831 25.6185 19.6401Z" fill="white"/>
</svg>
