<svg width="23" height="22" viewBox="0 0 23 22" fill="none" xmlns="http://www.w3.org/2000/svg">
<path d="M11.0152 2.67114C15.2461 2.67114 18.6759 5.94506 18.6759 9.98364C18.6759 13.0734 16.4016 16.4406 11.9111 20.122C11.3958 20.5445 10.6346 20.5445 10.1173 20.1203L9.82046 19.8747C5.52866 16.2903 3.35449 13.0045 3.35449 9.98364C3.35449 5.94506 6.78431 2.67114 11.0152 2.67114ZM11.0152 7.17114C9.38794 7.17114 8.06878 8.43034 8.06878 9.98364C8.06878 11.5369 9.38794 12.7961 11.0152 12.7961C12.6425 12.7961 13.9616 11.5369 13.9616 9.98364C13.9616 8.43034 12.6425 7.17114 11.0152 7.17114Z" fill="#003336"/>
</svg>
