<svg width="16" height="16" viewBox="0 0 16 16" fill="none" xmlns="http://www.w3.org/2000/svg">
<path fill-rule="evenodd" clip-rule="evenodd" d="M0.943658 5.14884L0.922879 5.08967C0.460192 3.76335 0.0654297 1.95056 0.0654297 0.861599C0.0654297 0.390002 0.451282 0.00415039 0.922879 0.00415039C0.922879 0.00415039 1.78033 0.00415039 3.49523 0.00415039C4.44234 0.00415039 5.21012 0.771936 5.21012 1.71905V3.43395C5.21012 4.38106 4.44234 5.14884 3.49523 5.14884H2.77757C4.16966 8.5879 6.91576 11.334 10.3548 12.7261V12.0084C10.3548 11.0613 11.1226 10.2935 12.0697 10.2935H13.7846C14.7317 10.2935 15.4995 11.0613 15.4995 12.0084C15.4995 13.7233 15.4995 14.5808 15.4995 14.5808C15.4995 14.9666 15.0279 15.4382 14.6421 15.4382C13.1626 15.4382 11.693 15.0476 10.3548 14.5808C5.96941 13.01 2.49368 9.53425 0.943658 5.14884Z" fill="#003336"/>
</svg>
