<svg width="39" height="34" viewBox="0 0 39 34" fill="none" xmlns="http://www.w3.org/2000/svg">
<path d="M15.2549 31.3936C14.1505 31.3936 14.3382 30.9455 13.9573 29.8155L10.7095 18.3301L35.7095 2.39355" fill="#F5F4F4"/>
<path d="M14.7095 31.3936C15.664 31.3936 16.0858 30.9899 16.6186 30.511L21.7095 25.9341L15.3592 22.3936" fill="#C0C0C0"/>
<path d="M15.5962 22.1714L29.6788 32.944C31.2858 33.8621 32.4456 33.3868 32.8459 31.3993L38.5783 3.43042C39.1652 0.994174 37.6813 -0.110795 36.144 0.611861L2.48373 14.0504C0.186101 15.0046 0.199497 16.3318 2.06492 16.9232L10.7029 19.7146L30.7008 6.65177C31.6448 6.05904 32.5113 6.3777 31.8001 7.03119" fill="white"/>
</svg>
