<svg width="35" height="30" viewBox="0 0 35 30" fill="none" xmlns="http://www.w3.org/2000/svg">
<path d="M17.2184 8.10801L17.2921 9.36234L16.0638 9.20875C11.5926 8.61998 7.68647 6.62329 4.36994 3.26987L2.74852 1.60596L2.33089 2.8347C1.44648 5.57375 2.01152 8.46639 3.85403 10.4119C4.83671 11.487 4.61561 11.6406 2.92049 11.0007C2.33089 10.7959 1.81498 10.6423 1.76585 10.7191C1.59388 10.8983 2.18349 13.2277 2.65026 14.1493C3.28899 15.4292 4.59104 16.6835 6.01592 17.4259L7.21969 18.0147L5.79482 18.0403C4.41907 18.0403 4.36994 18.0659 4.51734 18.6034C5.00868 20.2673 6.94946 22.0337 9.11134 22.8016L10.6345 23.3392L9.30788 24.1583C7.34253 25.3359 5.03324 26.0014 2.72396 26.0526C1.61845 26.0782 0.709473 26.1806 0.709473 26.2574C0.709473 26.5134 3.70663 27.9469 5.45088 28.5101C10.6836 30.174 16.899 29.4572 21.5667 26.6158C24.8833 24.5935 28.1998 20.5745 29.7475 16.6835C30.5828 14.6101 31.4181 10.8215 31.4181 9.00396C31.4181 7.82642 31.4918 7.67283 32.8675 6.26491C33.6782 5.44575 34.4398 4.5498 34.5872 4.29382C34.8329 3.80744 34.8083 3.80744 33.5554 4.24262C31.4672 5.01058 31.1724 4.90818 32.2042 3.75625C32.9658 2.93709 33.8748 1.45237 33.8748 1.01719C33.8748 0.940399 33.5063 1.06839 33.0886 1.29878C32.6464 1.55477 31.6637 1.93874 30.9267 2.16913L29.6001 2.60431L28.3963 1.75955C27.733 1.29878 26.7995 0.786807 26.3082 0.633215C25.0552 0.274835 23.139 0.326032 22.009 0.73561C18.9381 1.88755 16.9973 4.85699 17.2184 8.10801Z" fill="white"/>
</svg>
