<svg width="23" height="23" viewBox="0 0 23 23" fill="none" xmlns="http://www.w3.org/2000/svg">
<path fill-rule="evenodd" clip-rule="evenodd" d="M1.46131 7.62825L1.43169 7.5439C0.772174 5.65334 0.209473 3.06937 0.209473 1.51714C0.209473 0.844922 0.759473 0.294922 1.43169 0.294922C1.43169 0.294922 2.65392 0.294922 5.09836 0.294922C6.44839 0.294922 7.54281 1.38934 7.54281 2.73937V5.18381C7.54281 6.53384 6.44839 7.62825 5.09836 7.62825H4.0754C6.05972 12.5303 9.97405 16.4447 14.8761 18.429V17.406C14.8761 16.056 15.9706 14.9616 17.3206 14.9616H19.765C21.1151 14.9616 22.2095 16.056 22.2095 17.406C22.2095 19.8505 22.2095 21.0727 22.2095 21.0727C22.2095 21.6227 21.5373 22.2949 20.9872 22.2949C18.8783 22.2949 16.7835 21.7381 14.8761 21.0727C8.62511 18.8337 3.67074 13.8793 1.46131 7.62825Z" fill="white"/>
</svg>
