<svg width="29" height="29" viewBox="0 0 29 29" fill="none" xmlns="http://www.w3.org/2000/svg">
<path d="M14.3848 2.58203C19.7695 2.58203 24.1348 6.94726 24.1348 12.332C24.1348 16.4517 21.2402 20.9413 15.525 25.8499C14.8692 26.4131 13.9003 26.4131 13.2419 25.8476L12.8642 25.5202C7.40189 20.7409 4.63477 16.3598 4.63477 12.332C4.63477 6.94726 8.99999 2.58203 14.3848 2.58203ZM14.3848 8.58203C12.3137 8.58203 10.6348 10.261 10.6348 12.332C10.6348 14.4031 12.3137 16.082 14.3848 16.082C16.4558 16.082 18.1348 14.4031 18.1348 12.332C18.1348 10.261 16.4558 8.58203 14.3848 8.58203Z" fill="white"/>
</svg>
