<svg width="13" height="10" viewBox="0 0 13 10" fill="none" xmlns="http://www.w3.org/2000/svg">
<path d="M11.3929 3.23873L11.5801 3.05149C11.7396 2.892 11.7396 2.63341 11.5801 2.47396C11.4205 2.31451 11.162 2.31451 11.0025 2.47396L10.8107 2.66586L10.4422 1.19186C10.3099 0.662964 9.77926 0.248657 9.23414 0.248657H3.52191C2.97678 0.248657 2.44614 0.662964 2.31387 1.1919L1.9454 2.66586L1.75354 2.47396C1.594 2.31451 1.3355 2.31451 1.17601 2.47396C1.01651 2.63346 1.01651 2.89204 1.17601 3.05149L1.3632 3.23873C0.766446 3.53127 0.354492 4.1449 0.354492 4.85308V6.2875C0.354492 6.86641 0.629953 7.38188 1.05635 7.71072V8.42641C1.05635 9.01189 1.53263 9.48817 2.11816 9.48817H2.91708C3.50256 9.48817 3.97884 9.01189 3.97884 8.42641V8.08438H8.7772V8.42641C8.7772 9.01189 9.25349 9.48817 9.83897 9.48817H10.6379C11.2234 9.48817 11.6997 9.01189 11.6997 8.42641V7.7108C12.1261 7.38196 12.4016 6.86649 12.4016 6.2875V4.85308C12.4016 4.1449 11.9896 3.53127 11.3929 3.23873ZM2.72128 2.92972L3.10622 1.39001C3.14792 1.22313 3.34996 1.06539 3.52191 1.06539H9.2341C9.40604 1.06539 9.60808 1.22313 9.64978 1.39001L10.0348 2.92977C10.0454 2.97248 10.0433 3.00882 10.029 3.02708C10.0147 3.04533 9.97996 3.05624 9.93599 3.05624H2.82001C2.77604 3.05624 2.74128 3.04533 2.72696 3.02708C2.71276 3.00882 2.71065 2.97248 2.72128 2.92972ZM1.17126 4.85308C1.17126 4.31271 1.61096 3.87301 2.15134 3.87301H10.6047C11.1451 3.87301 11.5848 4.31271 11.5848 4.85308V6.2875C11.5848 6.82791 11.1451 7.26761 10.6047 7.26761H2.15134C1.61096 7.26761 1.17126 6.82791 1.17126 6.2875V4.85308ZM3.16208 8.42641C3.16208 8.55917 3.04984 8.6714 2.91708 8.6714H2.11811C1.98531 8.6714 1.87308 8.55917 1.87308 8.42641V8.06276C1.96381 8.07692 2.05666 8.08438 2.15129 8.08438H3.16203V8.42641H3.16208ZM10.8829 8.42641C10.8829 8.55917 10.7707 8.6714 10.6379 8.6714H9.83897C9.70621 8.6714 9.59397 8.55917 9.59397 8.42641V8.08438H10.6048C10.6994 8.08438 10.7922 8.07688 10.883 8.06276V8.42641H10.8829Z" fill="black"/>
<path d="M4.97475 5.97872H7.78245C8.00798 5.97872 8.1908 5.79586 8.1908 5.57033C8.1908 5.3448 8.00794 5.16199 7.78245 5.16199H4.97475C4.74922 5.16199 4.56641 5.34484 4.56641 5.57033C4.56637 5.79586 4.74922 5.97872 4.97475 5.97872Z" fill="black"/>
<path d="M2.86805 6.6806C3.48026 6.6806 3.97833 6.18253 3.97833 5.57032C3.97833 4.95811 3.48026 4.46008 2.86805 4.46008C2.25584 4.46008 1.75781 4.95811 1.75781 5.57032C1.75777 6.18249 2.25584 6.6806 2.86805 6.6806ZM2.86805 5.27677C3.0299 5.27677 3.16156 5.40848 3.16156 5.57028C3.16156 5.73213 3.0299 5.86379 2.86805 5.86379C2.70625 5.86379 2.57454 5.73213 2.57454 5.57028C2.5745 5.40848 2.70621 5.27677 2.86805 5.27677Z" fill="black"/>
<path d="M9.88762 6.6806C10.4998 6.6806 10.9979 6.18253 10.9979 5.57032C10.9979 4.95811 10.4998 4.46008 9.88762 4.46008C9.27541 4.46008 8.77734 4.95811 8.77734 5.57032C8.7773 6.18249 9.27541 6.6806 9.88762 6.6806ZM9.88762 5.27677C10.0494 5.27677 10.1811 5.40848 10.1811 5.57028C10.1811 5.73213 10.0494 5.86379 9.88762 5.86379C9.72578 5.86379 9.59411 5.73213 9.59411 5.57028C9.59407 5.40848 9.72574 5.27677 9.88762 5.27677Z" fill="black"/>
</svg>
