<svg width="9" height="13" viewBox="0 0 9 13" fill="none" xmlns="http://www.w3.org/2000/svg">
<path d="M7.79274 2.27235H6.4187V2.08812C6.41873 1.1057 5.61944 0.306396 4.63698 0.306396C3.65451 0.306396 2.85521 1.1057 2.85521 2.08815V2.27237H1.48117C1.05269 2.27237 0.704102 2.62096 0.704102 3.04944V11.5764C0.704102 12.0049 1.05269 12.3535 1.48117 12.3535H7.79274C8.2212 12.3535 8.56978 12.0049 8.56978 11.5764V3.04944C8.56978 2.62096 8.2212 2.27235 7.79274 2.27235ZM3.37887 2.08815C3.37887 1.39444 3.94325 0.830059 4.63698 0.830059C5.33068 0.830059 5.89507 1.39444 5.89507 2.08815V2.27237H3.37887V2.08815ZM1.48119 2.79604H2.85523V3.05231C2.41508 3.16839 2.08954 3.56979 2.08954 4.04589C2.08954 4.61245 2.55048 5.07339 3.11706 5.07339C3.68364 5.07339 4.14459 4.61247 4.14459 4.04589C4.14459 3.77145 4.03771 3.5134 3.84363 3.31935C3.71292 3.18863 3.55312 3.09767 3.37889 3.05211V2.79604H5.89507V3.05241C5.45506 3.16859 5.12965 3.56989 5.12965 4.04589C5.12965 4.61245 5.59059 5.07339 6.15717 5.07339C6.72375 5.07339 7.1847 4.61247 7.1847 4.04589C7.1847 3.77145 7.07782 3.5134 6.88374 3.31935C6.75295 3.18856 6.59306 3.09759 6.41873 3.05201V2.79604H7.79277C7.93249 2.79604 8.04615 2.90972 8.04615 3.04946V9.92602H1.22781V3.04944C1.22779 2.9097 1.34147 2.79604 1.48119 2.79604ZM3.11704 4.19806C3.26164 4.19806 3.37887 4.08083 3.37887 3.93622V3.61587C3.41268 3.63654 3.44458 3.66088 3.47333 3.6896C3.56851 3.78476 3.62093 3.91129 3.62093 4.04587C3.62093 4.32368 3.3949 4.54971 3.11706 4.54971C2.83922 4.54971 2.6132 4.32368 2.6132 4.04587C2.6132 3.86401 2.71038 3.70481 2.85523 3.61624V3.93622C2.85521 4.08083 2.97246 4.19806 3.11704 4.19806ZM6.1569 4.19806C6.3015 4.19806 6.41873 4.0808 6.41873 3.93622V3.61569C6.45264 3.63642 6.48463 3.66078 6.51344 3.6896C6.60862 3.78476 6.66103 3.91129 6.66103 4.04587C6.66103 4.32368 6.43501 4.54971 6.15717 4.54971C5.87933 4.54971 5.65331 4.32368 5.65331 4.04587C5.65331 3.86411 5.75039 3.70501 5.89507 3.61639V3.9362C5.89507 4.08083 6.01229 4.19806 6.1569 4.19806ZM7.79274 11.8298H1.48119C1.34147 11.8298 1.22779 11.7162 1.22779 11.5764V10.4497H8.04612V11.5764C8.04612 11.7162 7.93246 11.8298 7.79274 11.8298Z" fill="black"/>
</svg>
