<svg width="13" height="13" viewBox="0 0 13 13" fill="none" xmlns="http://www.w3.org/2000/svg">
<g clip-path="url(#clip0_39_15913)">
<path d="M6.89757 7.17028C6.84738 7.17028 6.79718 7.17028 6.74698 7.12009L1.2254 5.11224C1.02461 5.06204 0.874023 4.86126 0.874023 4.66047C0.874023 4.45969 1.02461 4.2589 1.2254 4.20871L6.74698 2.20086C6.84738 2.15066 6.99797 2.15066 7.09836 2.20086L12.6199 4.20871C12.7705 4.2589 12.9211 4.45969 12.9211 4.66047C12.9211 4.86126 12.7705 5.06204 12.5697 5.11224L7.04816 7.12009C6.99797 7.17028 6.94777 7.17028 6.89757 7.17028ZM2.83168 4.66047L6.89757 6.11616L10.9635 4.66047L6.89757 3.20478L2.83168 4.66047Z" fill="black"/>
<path d="M10.4112 10.182H6.89747C6.59629 10.182 6.39551 9.98126 6.39551 9.68008C6.39551 9.37891 6.59629 9.17812 6.89747 9.17812H9.90925C9.85905 7.87302 9.55787 6.7687 9.05591 5.96556C8.90532 5.71458 9.00571 5.4134 9.2065 5.26281C9.45748 5.11222 9.75866 5.21262 9.90925 5.4134C10.5618 6.46752 10.9132 7.92321 10.9132 9.62989C10.9132 9.98126 10.7124 10.182 10.4112 10.182Z" fill="black"/>
<path d="M6.89754 10.182H3.3838C3.08262 10.182 2.88184 9.98123 2.88184 9.68005C2.88184 7.97338 3.23321 6.51769 3.88576 5.46357C4.03635 5.21259 4.33753 5.16239 4.58851 5.31298C4.83949 5.46357 4.88969 5.76474 4.7391 6.01572C4.23713 6.81886 3.93596 7.92318 3.88576 9.22828H6.89754C7.19871 9.22828 7.3995 9.42907 7.3995 9.73025C7.3995 10.0314 7.19871 10.182 6.89754 10.182Z" fill="black"/>
<path d="M11.917 10.1821C11.6158 10.1821 11.415 9.98133 11.415 9.68016V4.66053C11.415 4.35935 11.6158 4.15857 11.917 4.15857C12.2182 4.15857 12.419 4.35935 12.419 4.66053V9.68016C12.419 9.98133 12.2182 10.1821 11.917 10.1821Z" fill="black"/>
</g>
<defs>
<clipPath id="clip0_39_15913">
<rect width="12.0471" height="12.0471" fill="white" transform="translate(0.874023 0.142822)"/>
</clipPath>
</defs>
</svg>
