<svg width="13" height="13" viewBox="0 0 13 13" fill="none" xmlns="http://www.w3.org/2000/svg">
<path d="M12.3296 5.74462L9.48454 3.00549V0.825525C9.48454 0.544715 9.25299 0.31317 8.97219 0.31317C8.69138 0.31317 8.45983 0.544715 8.45983 0.825525V2.0202L6.81931 0.441259C6.63949 0.261442 6.33159 0.261442 6.12714 0.441259L0.619333 5.74462C0.414884 5.94907 0.387789 6.25697 0.594701 6.46142C0.801613 6.66587 1.10705 6.69297 1.3115 6.48605L1.38786 6.41216V11.8411C1.38786 12.122 1.61941 12.3535 1.90022 12.3535H11.0733C11.3541 12.3535 11.5611 12.122 11.5857 11.8658V6.46389L11.6374 6.51315C12.0118 6.77179 12.2779 6.58951 12.3542 6.46142C12.534 6.25697 12.534 5.92444 12.3296 5.74462ZM7.38339 11.3559H5.59015V8.6143H7.38339V11.3559ZM10.561 11.3559H8.38347V8.10194C8.38347 7.82113 8.15193 7.58959 7.87112 7.58959H5.0778C4.79699 7.58959 4.56545 7.82113 4.56545 8.10194V11.3559H2.41257V6.33333H10.561V11.3559ZM2.5111 5.33572L6.48677 1.5177L10.423 5.33572H2.5111Z" fill="black"/>
</svg>
