<svg width="13" height="13" viewBox="0 0 13 13" fill="none" xmlns="http://www.w3.org/2000/svg">
<path d="M11.645 8.86604C11.6268 8.799 11.6009 8.7343 11.5678 8.67325C11.5179 8.58462 11.4507 8.50683 11.3703 8.44442C11.29 8.38201 11.198 8.33624 11.0997 8.30977C11.0014 8.2833 10.8989 8.27666 10.7981 8.29025C10.6972 8.30383 10.6001 8.33736 10.5123 8.38889L9.5074 8.96726C8.9657 9.28195 8.35057 9.4482 7.72409 9.44923C7.63289 9.44929 7.54182 9.44204 7.45178 9.42754C7.42095 9.39718 7.39198 9.36499 7.36502 9.33115L7.28791 9.23957H8.35066C8.5718 9.23957 8.78389 9.15173 8.94026 8.99536C9.09663 8.83898 9.18448 8.6269 9.18448 8.40576C9.18448 8.18462 9.09663 7.97253 8.94026 7.81616C8.78389 7.65979 8.5718 7.57194 8.35066 7.57194H5.75041C5.22279 7.23153 4.60703 7.05309 3.97915 7.05864H3.04171C2.99053 6.90048 2.89078 6.76249 2.75666 6.66428C2.62255 6.56607 2.46088 6.51264 2.29465 6.5116H1.41986C1.21189 6.51222 1.01254 6.59479 0.865034 6.7414C0.717524 6.888 0.633737 7.08684 0.631836 7.29481V10.9409C0.632472 11.1497 0.7157 11.3498 0.863346 11.4975C1.01099 11.6451 1.21106 11.7283 1.41986 11.729H2.2826C2.45089 11.7305 2.61526 11.6782 2.75179 11.5798C2.88833 11.4815 2.98989 11.3421 3.04171 11.1819H3.76467C4.30327 11.214 4.83885 11.2848 5.36724 11.394C5.72412 11.5 6.06651 11.6497 6.38661 11.8398C6.87103 12.1178 7.41982 12.2641 7.97834 12.2641C8.53686 12.2641 9.08564 12.1178 9.57006 11.8398L12.3125 10.2565C12.4003 10.2066 12.4771 10.1394 12.5384 10.0591C12.5997 9.97877 12.6442 9.88692 12.6692 9.78903C12.7055 9.65272 12.7037 9.50905 12.6641 9.37367C12.6245 9.23828 12.5484 9.11637 12.4443 9.02119C12.3402 8.92601 12.2119 8.86122 12.0736 8.83387C11.9352 8.80651 11.7919 8.81764 11.6594 8.86604H11.645ZM9.75321 9.37453L10.7533 8.8058C10.786 8.787 10.8221 8.77488 10.8595 8.77016C10.8969 8.76544 10.9349 8.76821 10.9712 8.7783C11.0075 8.78839 11.0415 8.80561 11.0711 8.82894C11.1007 8.85228 11.1254 8.88128 11.1437 8.91424C11.1804 8.97493 11.1932 9.04705 11.1799 9.11667L10.5123 9.49984C9.97061 9.81453 9.35549 9.98078 8.72901 9.98182C8.55176 9.98089 8.37559 9.9541 8.20607 9.90229C8.75215 9.83274 9.27846 9.6532 9.75321 9.37453ZM2.2826 11.2374H1.41986C1.34034 11.2374 1.26392 11.2065 1.20679 11.1512C1.14966 11.0958 1.11632 11.0204 1.11381 10.9409V7.29481C1.11381 7.21364 1.14606 7.13579 1.20345 7.07839C1.26085 7.021 1.33869 6.98875 1.41986 6.98875H2.2826C2.36377 6.98875 2.44162 7.021 2.49901 7.07839C2.55641 7.13579 2.58865 7.21364 2.58865 7.29481V10.9409C2.58865 11.0221 2.55641 11.1 2.49901 11.1574C2.44162 11.2148 2.36377 11.247 2.2826 11.247V11.2374ZM12.1992 9.66612C12.1897 9.70235 12.173 9.73633 12.1503 9.7661C12.1275 9.79588 12.0991 9.82087 12.0667 9.83963L9.30738 11.4229C8.89623 11.6586 8.43056 11.7826 7.95665 11.7826C7.48273 11.7826 7.01706 11.6586 6.60591 11.4229C6.2501 11.2154 5.86955 11.0534 5.47327 10.9409C4.90841 10.8164 4.33475 10.7359 3.75744 10.7H3.07063V7.53579H3.97915C4.53614 7.53187 5.08073 7.70021 5.53834 8.01777C5.57928 8.04425 5.62694 8.05847 5.6757 8.05874H8.35548C8.4488 8.05874 8.53829 8.09581 8.60427 8.16179C8.67025 8.22777 8.70732 8.31726 8.70732 8.41058C8.70732 8.50389 8.67025 8.59338 8.60427 8.65937C8.53829 8.72535 8.4488 8.76242 8.35548 8.76242H5.71667C5.65276 8.76242 5.59146 8.78781 5.54627 8.833C5.50107 8.8782 5.47568 8.93949 5.47568 9.00341C5.47568 9.06732 5.50107 9.12862 5.54627 9.17381C5.59146 9.219 5.65276 9.24439 5.71667 9.24439H6.68062L7.00595 9.64202C7.21665 9.90067 7.48237 10.1091 7.78378 10.2521C8.08519 10.3951 8.41469 10.469 8.74829 10.4686C9.45323 10.462 10.1443 10.2718 10.7533 9.91675L11.7582 9.33597C11.8084 9.30208 11.8679 9.28466 11.9285 9.28614C11.9891 9.28761 12.0476 9.30791 12.0961 9.34421C12.1446 9.38052 12.1806 9.43102 12.1991 9.48871C12.2176 9.54639 12.2176 9.6084 12.1992 9.66612Z" fill="black"/>
<path d="M10.1931 0.288452C9.68068 0.291451 9.18164 0.45253 8.76414 0.749698C8.34664 1.04687 8.03102 1.46564 7.86037 1.94886C7.42857 1.6658 6.9193 1.52429 6.40337 1.54401C5.88743 1.56373 5.39045 1.74369 4.98151 2.05888C4.57256 2.37407 4.27197 2.80883 4.12151 3.30274C3.97105 3.79664 3.97819 4.32515 4.14195 4.81481C4.30571 5.30446 4.61795 5.73094 5.03526 6.03496C5.45257 6.33898 5.95424 6.50544 6.47052 6.5112C6.9868 6.51697 7.49205 6.36175 7.91605 6.06712C8.34005 5.77249 8.66172 5.35309 8.83637 4.86721C9.23868 5.13356 9.71065 5.27523 10.1931 5.27448C10.8543 5.27448 11.4884 5.01183 11.956 4.54429C12.4235 4.07676 12.6861 3.44266 12.6861 2.78147C12.6861 2.12028 12.4235 1.48617 11.956 1.01864C11.4884 0.551108 10.8543 0.288452 10.1931 0.288452ZM7.90857 5.44558C7.63569 5.71966 7.28937 5.90896 6.91135 5.99068C6.53332 6.0724 6.13973 6.04304 5.77802 5.90615C5.4163 5.76925 5.10189 5.53066 4.8727 5.21913C4.6435 4.90761 4.50929 4.53644 4.48625 4.15037C4.46321 3.76431 4.55232 3.37981 4.74284 3.04324C4.93336 2.70667 5.21716 2.43238 5.56003 2.25343C5.9029 2.07449 6.29021 1.99853 6.67527 2.03471C7.06033 2.07089 7.4267 2.21766 7.73024 2.45734C7.71498 2.56432 7.70693 2.6722 7.70614 2.78026C7.70628 3.43611 7.96624 4.06519 8.4291 4.52983C8.34053 4.87611 8.16079 5.19232 7.90857 5.44558ZM10.1931 4.78046C9.66156 4.77982 9.15195 4.56837 8.77608 4.1925C8.4002 3.81662 8.18875 3.30701 8.18812 2.77544C8.18876 2.66388 8.19924 2.5526 8.21945 2.44288C8.22893 2.41494 8.23382 2.38563 8.2339 2.35612C8.31309 1.98585 8.49551 1.64557 8.76004 1.37466C9.02458 1.10375 9.36042 0.913285 9.7287 0.825304C10.097 0.737323 10.4826 0.755424 10.8411 0.877513C11.1995 0.999602 11.516 1.22069 11.754 1.51518C11.992 1.80968 12.1418 2.16555 12.1859 2.54161C12.2301 2.91767 12.1668 3.29855 12.0035 3.64017C11.8402 3.98179 11.5835 4.27019 11.2631 4.47198C10.9428 4.67378 10.5718 4.78073 10.1931 4.78046Z" fill="black"/>
</svg>
